<svg width="1540" height="780" viewBox="0 0 1540 780" fill="none" xmlns="http://www.w3.org/2000/svg">
<g clip-path="url(#clip0_52_8914)">
<rect width="1540" height="780" rx="50" fill="#2445CD"/>
<path fill-rule="evenodd" clip-rule="evenodd" d="M769.5 -127V-124.223V387.536V389.5H767.536H255.777H253L254.964 387.536L511.25 131.25L767.536 -125.036L769.5 -127ZM769.5 389.5H771.464L1276 389.5H1286C1286 389.5 1282.51 390.154 1276.2 391.464C1227.98 401.463 1014.79 449.684 927.401 537.071C835.778 628.695 782.105 849.776 771.464 897.021C770.158 902.82 769.5 906 769.5 906V896.802L769.5 391.464L769.5 389.5ZM512.639 132.639L767.536 -122.259V387.536H257.741L512.639 132.639ZM771.464 391.464L1266.73 391.464C1260.32 392.853 1252.46 394.614 1243.42 396.748C1217.49 402.869 1181.88 412.062 1143.17 424.35C1065.87 448.89 975.8 485.895 926.013 535.683C874.222 587.474 834.631 680.108 808.012 759.488C794.685 799.232 784.578 835.752 777.803 862.336C775.194 872.572 773.079 881.337 771.464 888.246L771.464 391.464Z" fill="white"/>
<path d="M344.88 549C333.32 544.79 333.32 537.9 344.88 533.69L452.05 494.69C463.61 490.48 482.53 490.48 494.05 494.69L601.21 533.69C612.78 537.9 612.78 544.79 601.21 549L494.09 588C482.53 592.21 463.61 592.21 452.09 588L344.88 549Z" fill="white" stroke="black" stroke-miterlimit="10"/>
<path d="M500.18 605.48C488.62 601.27 488.62 594.39 500.18 590.18L607.34 551.18C618.9 546.98 637.82 546.98 649.39 551.18L756.55 590.18C768.11 594.39 768.11 601.27 756.55 605.48L649.39 644.48C637.82 648.69 618.9 648.69 607.34 644.48L500.18 605.48Z" fill="white" stroke="black" stroke-miterlimit="10"/>
<path d="M655.651 662.07C644.091 657.86 644.091 650.97 655.651 646.77L762.821 607.77C774.381 603.56 793.301 603.56 804.821 607.77L911.981 646.77C923.551 650.97 923.551 657.86 911.981 662.07L804.821 701.07C793.261 705.28 774.341 705.28 762.821 701.07L655.651 662.07Z" fill="#2445CD" stroke="black" stroke-miterlimit="10"/>
<path d="M491.51 369V484.78C491.51 487.56 494.4 490.33 500.18 492.43L607.34 531.43C618.9 535.64 637.82 535.64 649.39 531.43L843.44 460.8C849.22 458.7 852.11 455.92 852.11 453.15V337.39L491.51 369Z" fill="white" stroke="black" stroke-miterlimit="10"/>
<path d="M491.51 478.93L508.59 485.14C513.11 486.79 516.81 484.2 516.81 479.39V459.08C516.687 456.547 515.85 454.101 514.396 452.023C512.941 449.946 510.928 448.322 508.59 447.34L498.38 443.62C495.385 442.471 492.932 440.236 491.51 437.36" stroke="black" stroke-miterlimit="10"/>
<path d="M628.36 534.59C635.99 534.59 643.61 533.59 649.36 531.44L843.41 460.81C849.19 458.71 852.08 455.93 852.08 453.16V347.08L643.68 423.08C635.24 426.16 628.33 436.03 628.33 445.01L628.36 534.59Z" fill="#EBE9E9"/>
<path d="M491.51 369V484.78C491.51 487.56 494.4 490.33 500.18 492.43L607.34 531.43C618.9 535.64 637.82 535.64 649.39 531.43L843.44 460.8C849.22 458.7 852.11 455.92 852.11 453.15V337.39L491.51 369Z" stroke="black" stroke-miterlimit="10"/>
<path d="M500.18 376.66C488.62 372.45 488.62 365.57 500.18 361.36L694.23 290.73C705.79 286.52 724.71 286.52 736.23 290.73L843.4 329.73C854.96 333.93 854.96 340.82 843.4 345.03L649.39 415.67C637.82 419.87 618.9 419.87 607.34 415.67L500.18 376.66Z" fill="white"/>
<path d="M843.44 345C855 340.79 855 333.9 843.44 329.7L773.54 304.25L624.37 353.2L595.37 399.35H626.26C633.817 399.129 641.302 397.812 648.48 395.44L702.69 375.7C709.868 373.325 717.353 372.005 724.91 371.78H770L843.44 345Z" fill="#2445CD" fill-opacity="0.26"/>
<path d="M500.18 376.66C488.62 372.45 488.62 365.57 500.18 361.36L694.23 290.73C705.79 286.52 724.71 286.52 736.23 290.73L843.4 329.73C854.96 333.93 854.96 340.82 843.4 345.03L649.39 415.67C637.82 419.87 618.9 419.87 607.34 415.67L500.18 376.66Z" stroke="black" stroke-miterlimit="10"/>
<path d="M794.39 326.49V235.31H679.89V326.49C679.89 328.55 682.04 330.61 686.34 332.18L721.5 345C730.1 348.13 744.18 348.13 752.78 345L787.94 332.2C792.24 330.61 794.39 328.55 794.39 326.49Z" fill="#2445CD" stroke="black" stroke-miterlimit="10"/>
<path d="M738.33 347.3C743.238 347.298 748.114 346.521 752.78 345L787.94 332.2C792.24 330.63 794.39 328.57 794.39 326.51V235.31L738.33 256.1V347.3Z" fill="black"/>
<path d="M794.39 326.49V235.31H679.89V326.49C679.89 328.55 682.04 330.61 686.34 332.18L721.5 345C730.1 348.13 744.18 348.13 752.78 345L787.94 332.2C792.24 330.61 794.39 328.55 794.39 326.49Z" stroke="black" stroke-miterlimit="10"/>
<path d="M686.34 241C677.74 237.86 677.74 232.74 686.34 229.61L721.5 216.81C730.1 213.68 744.18 213.68 752.78 216.81L787.94 229.61C796.54 232.74 796.54 237.86 787.94 241L752.78 253.8C744.18 256.93 730.1 256.93 721.5 253.8L686.34 241Z" fill="#2445CD" stroke="black" stroke-miterlimit="10"/>
<path d="M734.84 256.11V347.28" stroke="black" stroke-miterlimit="10"/>
<path d="M722.891 352.51V231.34H608.391V352.51C608.391 354.58 610.541 356.64 614.841 358.21L650.001 371C658.601 374.13 672.681 374.13 681.281 371L716.441 358.21C720.741 356.64 722.891 354.58 722.891 352.51Z" fill="#2445CD" stroke="black" stroke-miterlimit="10"/>
<path d="M666.831 373.33C671.74 373.323 676.618 372.537 681.281 371L716.441 358.21C720.741 356.64 722.891 354.58 722.891 352.51V231.34L666.831 252.12V373.33Z" fill="black"/>
<path d="M722.891 352.51V231.34H608.391V352.51C608.391 354.58 610.541 356.64 614.841 358.21L650.001 371C658.601 374.13 672.681 374.13 681.281 371L716.441 358.21C720.741 356.64 722.891 354.58 722.891 352.51Z" stroke="black" stroke-miterlimit="10"/>
<path d="M614.841 237C606.241 233.87 606.241 228.75 614.841 225.61L650.001 212.85C658.601 209.72 672.681 209.72 681.281 212.85L716.441 225.64C725.041 228.78 725.041 233.9 716.441 237.03L681.281 249.83C672.681 252.96 658.601 252.96 650.001 249.83L614.841 237Z" fill="#2445CD" stroke="black" stroke-miterlimit="10"/>
<path d="M651.39 378.54V337.36H536.89V378.54C536.89 380.6 539.04 382.66 543.34 384.23L578.49 397C587.1 400.13 601.17 400.13 609.78 397L644.93 384.2C649.23 382.66 651.39 380.6 651.39 378.54Z" fill="#2445CD" stroke="black" stroke-miterlimit="10"/>
<path d="M595.33 399.35C600.24 399.33 605.117 398.537 609.78 397L644.93 384.2C649.23 382.63 651.39 380.57 651.39 378.51V337.36L595.33 358.15V399.35Z" fill="black"/>
<path d="M651.39 378.54V337.36H536.89V378.54C536.89 380.6 539.04 382.66 543.34 384.23L578.49 397C587.1 400.13 601.17 400.13 609.78 397L644.93 384.2C649.23 382.66 651.39 380.6 651.39 378.54Z" stroke="black" stroke-miterlimit="10"/>
<path d="M543.34 343.06C534.74 339.92 534.74 334.8 543.34 331.67L578.49 318.87C587.1 315.74 601.17 315.74 609.78 318.87L644.93 331.67C653.54 334.8 653.54 339.92 644.93 343.06L609.78 355.85C601.17 358.98 587.1 358.98 578.49 355.85L543.34 343.06Z" fill="#2445CD" stroke="black" stroke-miterlimit="10"/>
<path d="M663.48 252.14V373.31" stroke="black" stroke-miterlimit="10"/>
<path d="M592.201 358.17V399.37" stroke="black" stroke-miterlimit="10"/>
<path opacity="0.7" d="M718.421 350.43C723.121 363.33 733.891 371.36 744.971 367.32L838.661 333.18C848.661 329.54 852.821 316.06 848.121 303.18L771.781 93.69C767.081 80.79 756.131 72.82 745.221 76.8L651.541 111C641.021 114.83 637.371 128.11 642.071 141L718.421 350.43Z" fill="#2445CD"/>
<path d="M649.16 111.8C638.64 115.63 634.99 128.92 639.69 141.8L716 351.29C720.7 364.19 731.47 372.21 742.55 368.17L744.91 367.32C733.84 371.32 723.08 363.32 718.38 350.43L642.07 141C637.37 128.1 641.02 114.82 651.54 111L649.16 111.8Z" fill="white"/>
<path d="M777.391 355.51L838.661 333.18C848.661 329.54 852.821 316.06 848.121 303.18L771.781 93.69C767.081 80.79 756.131 72.82 745.221 76.8L684.001 99.13L777.391 355.51Z" fill="black"/>
<path d="M780.551 314.05C788.145 314.05 794.301 306.108 794.301 296.31C794.301 286.513 788.145 278.57 780.551 278.57C772.957 278.57 766.801 286.513 766.801 296.31C766.801 306.108 772.957 314.05 780.551 314.05Z" fill="white" stroke="black" stroke-miterlimit="10"/>
<path d="M797.901 307.23C805.495 307.23 811.651 299.288 811.651 289.49C811.651 279.692 805.495 271.75 797.901 271.75C790.307 271.75 784.151 279.692 784.151 289.49C784.151 299.288 790.307 307.23 797.901 307.23Z" fill="#2445CD"/>
<path d="M780.551 314.05C788.145 314.05 794.301 306.108 794.301 296.31C794.301 286.513 788.145 278.57 780.551 278.57C772.957 278.57 766.801 286.513 766.801 296.31C766.801 306.108 772.957 314.05 780.551 314.05Z" stroke="black" stroke-miterlimit="10"/>
<path d="M718.421 350.43C723.121 363.33 733.891 371.36 744.971 367.32L838.661 333.18C848.661 329.54 852.821 316.06 848.121 303.18L771.781 93.69C767.081 80.79 756.131 72.82 745.221 76.8L651.541 111C641.021 114.83 637.371 128.11 642.071 141L718.421 350.43Z" stroke="black" stroke-miterlimit="10"/>
<path d="M713.161 158.92C714.701 163.14 718.231 165.77 721.851 164.44L735.391 159.51C738.661 158.32 740.021 153.91 738.481 149.69L730.361 127.4C728.821 123.18 725.241 120.57 721.671 121.87L708.141 126.81C704.691 128.06 703.501 132.41 705.041 136.63L713.161 158.92Z" fill="#2445CD"/>
<path d="M730.001 126.42C728.291 122.79 725.001 120.68 721.721 121.87L708.191 126.81C704.741 128.06 703.551 132.41 705.091 136.63L709.001 147.41L730.001 126.42Z" fill="white"/>
<path d="M725.78 135.29L732.34 132.83" stroke="black" stroke-miterlimit="10"/>
<path d="M729.961 146.76L736.521 144.29" stroke="black" stroke-miterlimit="10"/>
<path d="M707.06 142.18L714.06 139.56" stroke="black" stroke-miterlimit="10"/>
<path d="M711.24 153.64L718.24 151.03" stroke="black" stroke-miterlimit="10"/>
<path d="M717.631 150.72C718.371 152.72 720.061 154.01 721.811 153.38L728.301 151C729.871 150.43 730.531 148.31 729.791 146.28L725.891 135.58C725.151 133.58 723.431 132.3 721.721 132.93L715.221 135.3C713.571 135.9 712.991 137.99 713.731 140.01L717.631 150.72Z" stroke="black" stroke-miterlimit="10"/>
<path d="M613.07 602.17C611.07 601.44 611.07 600.25 613.07 599.52L633 592.26C635.375 591.53 637.915 591.53 640.29 592.26L643.66 593.49C645.66 594.22 645.66 595.41 643.66 596.14L623.73 603.4C621.355 604.13 618.815 604.13 616.44 603.4L613.07 602.17Z" fill="black"/>
<path d="M611.56 561V596C611.56 596.48 612.06 597 613.07 597.33L616.44 598.56C618.816 599.29 621.355 599.29 623.73 598.56L643.66 591.3C644.66 590.93 645.17 590.45 645.17 589.97V555L611.56 561Z" fill="white" stroke="black" stroke-miterlimit="10"/>
<path d="M613.071 562.32C611.071 561.59 611.071 560.4 613.071 559.67L633.001 552.41C635.376 551.68 637.916 551.68 640.291 552.41L643.661 553.64C645.661 554.37 645.661 555.56 643.661 556.29L623.731 563.55C621.356 564.28 618.816 564.28 616.441 563.55L613.071 562.32Z" fill="white" stroke="black" stroke-miterlimit="10"/>
<path d="M628.94 558.98C630.873 558.98 632.44 558.362 632.44 557.6C632.44 556.838 630.873 556.22 628.94 556.22C627.007 556.22 625.44 556.838 625.44 557.6C625.44 558.362 627.007 558.98 628.94 558.98Z" stroke="black" stroke-miterlimit="10"/>
<path d="M961.88 686.08C946.95 686.08 932.02 684.01 920.66 679.87L909 675.63L911.39 669.05L923.05 673.3C944.46 681.09 979.3 681.09 1000.71 673.3L1037.41 659.94C1076.1 645.85 1098.29 626.73 1098.29 607.48C1098.29 588.23 1076.1 569.1 1037.41 555L885.71 499.8L748.78 549.64C741.508 552.256 733.65 552.79 726.092 551.18C718.533 549.571 711.575 545.882 706 540.53C696.86 531.68 682.94 520.14 668.5 515.41C660.67 512.84 653.81 513.63 648.11 517.76C637.35 525.56 632.44 543.88 632.44 557.6H625.44C625.44 541.6 631.18 521.38 644 512.09C651.52 506.65 660.74 505.5 670.69 508.76C686.38 513.91 701.2 526.14 710.87 535.5C715.498 539.942 721.274 543.003 727.548 544.339C733.822 545.675 740.344 545.232 746.38 543.06L885.71 492.35L1039.81 548.44C1082.04 563.81 1105.29 584.77 1105.29 607.44C1105.29 630.11 1082.04 651.1 1039.81 666.44L1003.1 679.87C991.74 684 976.81 686.08 961.88 686.08Z" fill="white"/>
<path d="M625.44 557.6C625.44 541.6 631.18 521.38 644 512.09C651.52 506.65 660.74 505.5 670.69 508.76C686.38 513.91 701.2 526.14 710.87 535.5C715.498 539.942 721.274 543.003 727.548 544.339C733.822 545.675 740.344 545.232 746.38 543.06L885.71 492.35L1039.81 548.44C1082.04 563.81 1105.29 584.77 1105.29 607.44C1105.29 630.11 1082.04 651.1 1039.81 666.44L1003.1 679.87C991.74 684.01 976.81 686.08 961.88 686.08C946.95 686.08 932 684 920.66 679.87L909 675.63" stroke="black" stroke-miterlimit="10"/>
<path d="M911.39 669.05L923.05 673.3C944.46 681.09 979.3 681.09 1000.71 673.3L1037.41 659.94C1076.1 645.85 1098.29 626.73 1098.29 607.48C1098.29 588.23 1076.1 569.1 1037.41 555L885.71 499.8L748.78 549.64C741.509 552.256 733.651 552.79 726.092 551.18C718.534 549.571 711.575 545.882 706 540.53C696.86 531.68 682.94 520.14 668.5 515.41C660.67 512.84 653.81 513.63 648.11 517.76C637.35 525.56 632.44 543.88 632.44 557.6" stroke="black" stroke-miterlimit="10"/>
<path d="M1090.23 260.6C1096.62 243.07 1091.66 225.01 1077.37 219.8L977.111 183.25C962.291 177.85 947.411 188.67 941.021 206.2L863.201 419.73L939.311 543.59L811.131 590.24C799.571 594.45 799.571 601.34 811.131 605.55L918.291 644.55C929.851 648.76 948.771 648.76 960.341 644.55L1053.74 610.55C1072.87 603.55 1079.74 583.71 1069.13 566.36L1028.89 500.94C1019.83 486.19 1017.26 460.82 1023.18 444.56L1090.23 260.6Z" fill="white" stroke="black" stroke-miterlimit="10"/>
<path d="M1002.4 482.18L921.161 453.54L901.161 469.17L939.331 543.59L841.741 579.11L983.741 630.81C997.261 625.33 1016.34 617.67 1044.57 606.98C1055.82 602.72 1067.33 596.98 1067.33 583.4C1067.33 572.75 1064.84 572.86 1024.4 506.5C1020 499.21 1012.38 485.7 1002.4 482.18Z" fill="#2445CD" fill-opacity="0.26"/>
<path d="M917.43 641.28C924.27 643.186 931.33 644.195 938.43 644.28C957.49 644.28 955.89 640.56 1044.63 606.96C1055.88 602.7 1067.39 596.96 1067.39 583.38C1067.39 572.73 1064.9 572.84 1024.46 506.48C1020.03 499.19 1012.46 485.68 1002.46 482.16L921.22 453.52" stroke="black" stroke-miterlimit="10"/>
<path d="M965.46 566.74C959.08 584.27 944.46 595.18 929.37 589.74L802 543.29C786.55 537.66 782.75 520.02 789.14 502.49L925.73 127.82C932.12 110.29 947 99.4599 961.83 104.82L1089.16 151.23C1103.45 156.44 1108.41 174.5 1102.02 192.03L965.46 566.74Z" fill="#2445CD" fill-opacity="0.26" stroke="black" stroke-miterlimit="10"/>
<path d="M1104.14 169.21C1104.14 169.21 1101.81 161.21 1098.82 158.15L1085.45 153.15L1086.84 163.07L1104.14 169.21Z" fill="black"/>
<path d="M1102 192.07C1103.2 188.778 1104.03 185.359 1104.45 181.88L1089.92 176.74L940.18 579.12L954.51 583.81C959.477 579.071 963.247 573.22 965.51 566.74L1102 192.07Z" fill="black"/>
<path d="M952.77 562.12C946.38 579.65 931.77 590.56 916.68 585.12L789.34 538.72C775.76 533.77 770.1 515.45 776.49 497.92L913 123.2C919.39 105.67 934.27 94.84 949.09 100.2L1076.42 146.61C1090.72 151.82 1095.67 169.88 1089.28 187.41L952.77 562.12Z" fill="#2445CD" fill-opacity="0.26" stroke="black" stroke-miterlimit="10"/>
<path d="M1074 263.438C1074.6 261.787 1073.74 259.964 1072.09 259.367C1070.44 258.77 1068.62 259.624 1068.02 261.275L1054.94 297.447C1054.34 299.097 1055.2 300.92 1056.85 301.517C1058.5 302.114 1060.32 301.26 1060.92 299.609L1074 263.438Z" fill="#2445CD" fill-opacity="0.26" stroke="black" stroke-width="0.9996" stroke-miterlimit="10"/>
<path d="M1074 152.13L1064 148.49C1062.71 148.096 1061.34 148.056 1060.02 148.375C1058.71 148.693 1057.51 149.358 1056.54 150.3L1052 155.22C1050.38 156.795 1048.36 157.905 1046.17 158.433C1043.97 158.961 1041.67 158.887 1039.51 158.22L968.601 132.4C966.551 131.546 964.797 130.111 963.553 128.272C962.309 126.433 961.631 124.27 961.601 122.05L961.791 115.91C961.775 114.584 961.37 113.292 960.627 112.193C959.884 111.095 958.835 110.239 957.611 109.73L947.541 106.05C935.331 101.61 923.091 110.52 917.831 124.95L781.281 499.62C776.021 514.05 780.681 529.12 791.861 533.2L918.281 579.26C930.671 583.78 942.721 574.8 947.981 560.37L1084.53 185.7C1089.79 171.27 1085.71 156.41 1074 152.13Z" fill="white"/>
<path d="M791.86 533.2L918.28 579.26C930.67 583.78 942.72 574.8 947.98 560.37L956.18 537.88L1084.53 185.7C1089.79 171.27 1085.71 156.41 1073.95 152.13L1063.95 148.49C1062.66 148.096 1061.28 148.056 1059.97 148.375C1058.66 148.693 1057.46 149.358 1056.49 150.3L1052 155.22C1050.38 156.795 1048.36 157.905 1046.17 158.433C1043.97 158.961 1041.67 158.887 1039.51 158.22L974.91 134.68L968.62 132.38C966.571 131.526 964.816 130.091 963.573 128.252C962.329 126.413 961.65 124.25 961.62 122.03L961.81 115.89C961.794 114.564 961.39 113.272 960.647 112.173C959.904 111.075 958.855 110.219 957.63 109.71L947.56 106.03C935.35 101.59 923.11 110.5 917.85 124.93" stroke="black" stroke-miterlimit="10"/>
<path d="M989.89 413.33C984.59 427.85 972.46 436.89 959.98 432.33L854.47 393.9C843.21 389.8 838.47 374.62 843.82 360.09L893.56 223.6C898.85 209.08 911.18 200.11 923.47 204.6L1029 243C1040.84 247.32 1044.95 262.28 1039.65 276.8L989.89 413.33Z" fill="#2445CD"/>
<path d="M1017 137.94C1016.87 138.31 1016.67 138.649 1016.41 138.936C1016.14 139.224 1015.82 139.454 1015.46 139.611C1015.1 139.769 1014.72 139.851 1014.33 139.853C1013.94 139.854 1013.55 139.775 1013.19 139.62L996.25 133.45C995.513 133.198 994.907 132.663 994.564 131.964C994.22 131.264 994.169 130.458 994.42 129.72L994.47 129.58C994.599 129.212 994.802 128.874 995.067 128.587C995.332 128.3 995.653 128.071 996.011 127.913C996.368 127.756 996.754 127.673 997.144 127.671C997.534 127.669 997.921 127.747 998.28 127.9L1015.21 134.08C1015.58 134.198 1015.92 134.39 1016.22 134.643C1016.51 134.896 1016.75 135.206 1016.92 135.555C1017.09 135.903 1017.19 136.282 1017.22 136.669C1017.24 137.057 1017.18 137.445 1017.05 137.81L1017 137.94Z" stroke="black" stroke-miterlimit="10" stroke-linecap="round"/>
<path d="M1027.92 141.956C1028.66 139.984 1027.93 137.893 1026.3 137.287C1024.67 136.681 1022.75 137.788 1022.02 139.76C1021.28 141.732 1022.01 143.823 1023.64 144.429C1025.27 145.035 1027.19 143.928 1027.92 141.956Z" stroke="black" stroke-miterlimit="10"/>
<path d="M920.821 503.32C917.721 511.82 910.311 516.99 902.511 514.15L836.511 490.15C829.511 487.58 826.371 478.57 829.511 470.07C832.611 461.57 840.141 456.44 847.821 459.24L913.771 483.24C921.181 485.93 923.921 494.81 920.821 503.31V503.32Z" fill="black"/>
<path d="M810.297 514.595C812.199 509.387 810.205 503.873 805.843 502.279C801.48 500.685 796.401 503.615 794.498 508.823C792.595 514.032 794.589 519.546 798.952 521.14C803.315 522.734 808.394 519.804 810.297 514.595Z" fill="#EBE9E9"/>
<path d="M840.467 525.586C842.37 520.378 840.376 514.864 836.013 513.27C831.65 511.676 826.571 514.606 824.668 519.814C822.765 525.022 824.76 530.537 829.122 532.13C833.485 533.724 838.564 530.794 840.467 525.586Z" fill="#EBE9E9"/>
<path d="M870.656 536.57C872.559 531.362 870.565 525.848 866.202 524.254C861.84 522.66 856.761 525.59 854.858 530.798C852.955 536.007 854.949 541.521 859.312 543.115C863.674 544.709 868.754 541.779 870.656 536.57Z" fill="#EBE9E9"/>
<path d="M900.836 547.551C902.739 542.343 900.745 536.829 896.382 535.235C892.019 533.641 886.94 536.571 885.037 541.779C883.134 546.987 885.129 552.501 889.491 554.095C893.854 555.689 898.933 552.759 900.836 547.551Z" fill="#EBE9E9"/>
<path d="M931.016 558.535C932.918 553.327 930.924 547.813 926.562 546.219C922.199 544.625 917.12 547.555 915.217 552.763C913.314 557.971 915.308 563.486 919.671 565.08C924.034 566.673 929.113 563.743 931.016 558.535Z" fill="#EBE9E9"/>
<path d="M864.349 357.069L859.04 355.135L852.673 372.611L857.981 374.545L864.349 357.069Z" fill="white"/>
<path d="M876.257 357.398L870.948 355.463L867.898 363.835L873.206 365.769L876.257 357.398Z" fill="white"/>
<path d="M895.669 337.14L890.361 335.206L878.522 367.696L883.831 369.631L895.669 337.14Z" fill="white"/>
<path d="M909.086 333.352L903.778 331.418L897.721 348.039L903.03 349.974L909.086 333.352Z" fill="white"/>
<path d="M914.361 351.925L909.052 349.991L902.335 368.425L907.644 370.359L914.361 351.925Z" fill="white"/>
<path d="M929.769 342.633L924.461 340.698L912.623 373.189L917.931 375.123L929.769 342.633Z" fill="white"/>
<path d="M953.613 310.238L948.305 308.304L929.25 360.6L934.558 362.535L953.613 310.238Z" fill="white"/>
<path d="M954.221 343L948.91 341.079L942.664 358.347L947.975 360.268L954.221 343Z" fill="white"/>
<path d="M966.389 341.215L961.08 339.281L949.242 371.771L954.55 373.705L966.389 341.215Z" fill="white"/>
<path d="M996.594 291.337L991.286 289.403L971.895 342.62L977.204 344.554L996.594 291.337Z" fill="white"/>
<path d="M989.465 343.975L984.156 342.04L978.401 357.835L983.71 359.769L989.465 343.975Z" fill="white"/>
<path d="M1003.11 340.838L997.796 338.917L983.581 378.218L988.892 380.139L1003.11 340.838Z" fill="white"/>
<path d="M909.001 675.63L901.621 672.94C894.141 670.22 890.771 666.22 887.791 662.68C884.811 659.14 882.401 656.28 876.111 653.99L854.251 645.99C850.179 644.508 846.443 642.228 843.263 639.284C840.083 636.341 837.521 632.793 835.729 628.847C833.936 624.902 832.949 620.639 832.824 616.307C832.699 611.975 833.439 607.662 835.001 603.62L843.931 580.47L850.461 582.99L841.531 606.14C840.297 609.318 839.711 612.71 839.807 616.117C839.903 619.525 840.679 622.879 842.089 625.982C843.5 629.085 845.516 631.875 848.02 634.188C850.524 636.501 853.465 638.29 856.671 639.45L878.531 647.45C886.531 650.38 890.091 654.54 893.181 658.21C895.941 661.49 898.321 664.32 904.041 666.41L911.421 669.09L909.001 675.63Z" fill="white"/>
<path d="M909.001 675.63L901.621 672.94C894.141 670.22 890.771 666.22 887.791 662.68C884.811 659.14 882.401 656.28 876.111 653.99L854.251 645.99C850.179 644.508 846.443 642.228 843.263 639.284C840.083 636.341 837.521 632.793 835.729 628.847C833.936 624.902 832.949 620.639 832.824 616.307C832.699 611.975 833.439 607.662 835.001 603.62L843.931 580.47L850.461 582.99L841.531 606.14C840.297 609.318 839.711 612.71 839.807 616.117C839.903 619.525 840.679 622.879 842.089 625.982C843.5 629.085 845.516 631.875 848.02 634.188C850.524 636.501 853.465 638.29 856.671 639.45L878.531 647.45C886.531 650.38 890.091 654.54 893.181 658.21C895.941 661.49 898.321 664.32 904.041 666.41L911.421 669.09" stroke="black" stroke-miterlimit="10"/>
<path d="M838.387 556.467L869.327 567.771L859.673 594.192C859.055 595.886 857.788 597.265 856.153 598.025C854.517 598.785 852.647 598.865 850.953 598.246L832.787 591.609C831.093 590.99 829.715 589.724 828.954 588.088C828.194 586.453 828.115 584.582 828.734 582.888L838.387 556.467Z" fill="white" stroke="black" stroke-miterlimit="10"/>
<path d="M864.36 565.95L852.88 595.63" stroke="black" stroke-miterlimit="10"/>
<path d="M470.001 500.8C470.001 499.56 469.191 470.21 495.161 460.19L498.401 468.59C490.141 471.78 484.401 477.99 481.271 487.05C479.792 491.378 479.026 495.917 479.001 500.49L470.001 500.8Z" fill="black"/>
<path d="M500.847 470.27C503.388 469.459 504.484 465.781 503.294 462.056C502.105 458.331 499.081 455.97 496.539 456.781C493.998 457.593 492.903 461.27 494.092 464.995C495.282 468.72 498.306 471.082 500.847 470.27Z" fill="black"/>
<path d="M484.671 475.48C484.095 475.471 483.535 475.297 483.056 474.979C482.577 474.66 482.199 474.211 481.968 473.684C481.738 473.157 481.663 472.575 481.754 472.007C481.845 471.439 482.097 470.909 482.481 470.48C486.154 466.559 490.676 463.532 495.701 461.63C496.068 461.488 496.46 461.42 496.854 461.43C497.248 461.439 497.637 461.527 497.997 461.686C498.357 461.846 498.683 462.075 498.954 462.361C499.226 462.646 499.439 462.982 499.581 463.35C499.723 463.718 499.791 464.11 499.781 464.504C499.771 464.898 499.684 465.286 499.524 465.646C499.365 466.006 499.135 466.332 498.85 466.604C498.565 466.875 498.228 467.088 497.861 467.23C493.684 468.81 489.922 471.32 486.861 474.57C486.577 474.863 486.236 475.094 485.859 475.251C485.483 475.407 485.078 475.485 484.671 475.48Z" fill="#2445CD"/>
<path d="M474.491 503.77C478.859 503.77 482.401 502.369 482.401 500.64C482.401 498.911 478.859 497.51 474.491 497.51C470.122 497.51 466.581 498.911 466.581 500.64C466.581 502.369 470.122 503.77 474.491 503.77Z" fill="black"/>
<path d="M429.54 555C415.12 549.76 415.12 541.17 429.54 535.92L467 522.32C481.42 517.07 505 517.07 519.44 522.32C533.88 527.57 533.86 536.16 519.44 541.41L482 555C467.56 560.29 444 560.29 429.54 555Z" fill="#2445CD" fill-opacity="0.26"/>
<path d="M513.92 529C501.5 524.48 481.19 524.48 468.77 529L435.45 541.12C426.19 544.49 423.84 549.12 428.39 553.32C429.58 553.95 431.39 555.47 432.91 555.98C445.46 559.98 468.79 559.92 482.16 555.05L516.89 542.41C518.84 541.729 520.708 540.834 522.46 539.74C524.74 536 521.89 531.89 513.92 529Z" fill="#2445CD"/>
<path d="M429.54 555C415.12 549.76 415.12 541.17 429.54 535.92L467 522.32C481.42 517.07 505 517.07 519.44 522.32C533.88 527.57 533.86 536.16 519.44 541.41L482 555C467.56 560.29 444 560.29 429.54 555Z" stroke="black" stroke-miterlimit="10"/>
<path d="M525 524.92C518.51 521 506.71 518.37 493.22 518.37C479.73 518.37 467.92 521 461.43 524.92H456.15V534.92C456.15 542.37 472.74 548.41 493.22 548.41C496.075 548.409 498.927 548.232 501.76 547.88C512.15 544.03 523.35 539.69 528.76 535.96C529.695 534.776 530.234 533.328 530.3 531.82V524.88L525 524.92Z" fill="white"/>
<path d="M493.2 518.37V548.45C495.899 548.447 498.596 548.303 501.28 548.02L520.21 541.13C524.42 539.6 530.21 535.92 530.21 531.86V524.92H525C518.49 521 506.69 518.37 493.2 518.37Z" fill="#2445CD" fill-opacity="0.26"/>
<path d="M525 524.92C518.51 521 506.71 518.37 493.22 518.37C479.73 518.37 467.92 521 461.43 524.92H456.15V534.92C456.15 542.37 472.74 548.41 493.22 548.41C494.48 548.41 498.81 548.23 501.3 547.98L520.23 541.09C527.01 538.09 530.23 535.36 530.23 531.82V524.88L525 524.92Z" stroke="black" stroke-miterlimit="10"/>
<path d="M493.2 538.41C513.673 538.41 530.27 532.37 530.27 524.92C530.27 517.47 513.673 511.43 493.2 511.43C472.727 511.43 456.13 517.47 456.13 524.92C456.13 532.37 472.727 538.41 493.2 538.41Z" fill="white" stroke="black" stroke-miterlimit="10"/>
<path d="M515.741 603.03C523.594 603.03 529.961 600.514 529.961 597.41C529.961 594.306 523.594 591.79 515.741 591.79C507.888 591.79 501.521 594.306 501.521 597.41C501.521 600.514 507.888 603.03 515.741 603.03Z" stroke="black" stroke-miterlimit="10"/>
<path d="M524.001 597.41H507.451V590.2C507.456 588.037 508.317 585.965 509.847 584.436C511.376 582.907 513.448 582.045 515.611 582.04C517.841 582.048 519.979 582.937 521.556 584.515C523.133 586.092 524.023 588.229 524.031 590.46L524.001 597.41Z" fill="#2445CD"/>
<path d="M515.741 600.69C520.325 600.69 524.041 599.221 524.041 597.41C524.041 595.598 520.325 594.13 515.741 594.13C511.157 594.13 507.441 595.598 507.441 597.41C507.441 599.221 511.157 600.69 515.741 600.69Z" fill="#2445CD"/>
<path d="M519.381 593.53C520.795 593.53 521.941 592.384 521.941 590.97C521.941 589.556 520.795 588.41 519.381 588.41C517.967 588.41 516.821 589.556 516.821 590.97C516.821 592.384 517.967 593.53 519.381 593.53Z" fill="white"/>
<path d="M680.741 444.8C678.623 445.691 676.801 447.163 675.485 449.046C674.168 450.929 673.411 453.145 673.301 455.44V481C673.301 485.36 676.651 487.71 680.741 486.22L701.881 478.52C704 477.633 705.824 476.163 707.143 474.282C708.461 472.401 709.22 470.185 709.331 467.89V442.32C709.331 437.96 705.981 435.62 701.881 437.11L680.741 444.8Z" fill="black"/>
<path d="M692.391 469.81V472.34L690.011 473.26V470.79C689.543 470.936 689.045 470.957 688.566 470.852C688.087 470.747 687.644 470.519 687.28 470.19C686.529 469.302 686.143 468.162 686.201 467L688.85 466C688.95 466.86 689.171 467.4 689.541 467.63C689.799 467.74 690.079 467.79 690.36 467.776C690.64 467.762 690.914 467.685 691.16 467.55C691.765 467.364 692.289 466.981 692.652 466.463C693.014 465.945 693.193 465.321 693.16 464.69C693.188 464.46 693.168 464.226 693.1 464.004C693.033 463.782 692.921 463.576 692.77 463.4C692.585 463.278 692.376 463.197 692.157 463.164C691.937 463.131 691.713 463.147 691.5 463.21L690.36 463.4C689.88 463.542 689.374 463.578 688.878 463.503C688.382 463.429 687.908 463.247 687.49 462.97C687.139 462.6 686.873 462.158 686.711 461.674C686.548 461.19 686.494 460.677 686.55 460.17C686.538 458.9 686.859 457.648 687.481 456.54C688.078 455.457 688.946 454.547 690 453.9V451.77L692.38 450.85V453C692.803 452.913 693.241 452.932 693.655 453.056C694.069 453.18 694.445 453.405 694.75 453.71C695.411 454.511 695.766 455.521 695.75 456.56L693 457.62C693.013 457.351 692.97 457.081 692.876 456.829C692.781 456.576 692.637 456.345 692.451 456.15C692.238 456.032 691.999 455.97 691.755 455.97C691.512 455.97 691.273 456.032 691.06 456.15C690.529 456.337 690.071 456.687 689.75 457.15C689.436 457.649 689.276 458.23 689.291 458.82C689.263 459.037 689.288 459.257 689.362 459.462C689.437 459.667 689.56 459.852 689.72 460C690.166 460.225 690.68 460.275 691.16 460.14L692.47 459.93C692.915 459.803 693.383 459.785 693.835 459.878C694.288 459.97 694.711 460.17 695.071 460.46C695.397 460.849 695.642 461.301 695.79 461.787C695.937 462.273 695.985 462.785 695.93 463.29C695.958 464.617 695.634 465.928 694.99 467.09C694.375 468.207 693.479 469.145 692.391 469.81Z" fill="white"/>
<path d="M752.731 418.6C750.611 419.49 748.787 420.961 747.469 422.844C746.151 424.727 745.392 426.944 745.281 429.24V454.82C745.281 459.18 748.631 461.53 752.731 460.04L773.861 452.34C775.98 451.453 777.804 449.984 779.123 448.102C780.441 446.221 781.2 444.005 781.311 441.71V416.12C781.311 411.76 777.961 409.42 773.861 410.91L752.731 418.6Z" fill="black"/>
<path d="M753.231 437.8V434C753.19 432.9 753.464 431.81 754.021 430.86C754.572 430.008 755.387 429.358 756.341 429.01C757.411 428.6 758.191 428.61 758.691 429.01C758.984 429.363 759.202 429.772 759.331 430.212C759.46 430.653 759.497 431.115 759.441 431.57V435.38C759.484 436.524 759.225 437.658 758.691 438.67C758.155 439.562 757.324 440.238 756.341 440.58C755.271 441 754.481 440.97 753.981 440.49C753.393 439.724 753.124 438.76 753.231 437.8ZM757.061 436.19V432.86C757.089 432.406 757.045 431.95 756.931 431.51C756.851 431.29 756.651 431.24 756.341 431.36C756.202 431.411 756.076 431.492 755.972 431.598C755.868 431.703 755.789 431.83 755.741 431.97C755.633 432.445 755.589 432.933 755.611 433.42V436.75C755.587 437.194 755.628 437.638 755.731 438.07C755.821 438.29 756.021 438.33 756.341 438.21C756.48 438.17 756.608 438.096 756.713 437.995C756.817 437.894 756.896 437.768 756.941 437.63C757.041 437.157 757.082 436.673 757.061 436.19ZM768.331 424.4L759.421 446.5L757.151 447.38L766.041 425.28L768.331 424.4ZM766.001 440.11V436.3C765.958 435.199 766.233 434.11 766.791 433.16C767.34 432.306 768.155 431.655 769.111 431.31C770.181 430.9 770.961 430.91 771.461 431.31C771.755 431.662 771.973 432.071 772.102 432.512C772.231 432.952 772.268 433.415 772.211 433.87V437.68C772.254 438.824 771.995 439.958 771.461 440.97C770.925 441.862 770.094 442.538 769.111 442.88C768.041 443.29 767.251 443.26 766.751 442.79C766.165 442.026 765.897 441.067 766.001 440.11ZM769.831 438.5V435.17C769.858 434.716 769.815 434.26 769.701 433.82C769.621 433.6 769.421 433.55 769.111 433.67C768.972 433.721 768.846 433.802 768.742 433.908C768.638 434.013 768.559 434.14 768.511 434.28C768.402 434.755 768.359 435.243 768.381 435.73V439.06C768.357 439.504 768.398 439.948 768.501 440.38C768.591 440.6 768.791 440.64 769.111 440.52C769.25 440.48 769.378 440.406 769.483 440.305C769.587 440.204 769.666 440.078 769.711 439.94C769.817 439.468 769.864 438.984 769.851 438.5H769.831Z" fill="white"/>
</g>
<defs>
<clipPath id="clip0_52_8914">
<rect width="1540" height="780" fill="white"/>
</clipPath>
</defs>
</svg>
