<svg width="360" height="600" viewBox="0 0 360 600" fill="none" xmlns="http://www.w3.org/2000/svg">
<g clip-path="url(#clip0_52_8473)">
<rect width="360" height="600" rx="50" fill="#2445CD"/>
<path fill-rule="evenodd" clip-rule="evenodd" d="M180 37V38.4142V299V300H179H-81.5858H-83L-82 299L48.5 168.5L179 38L180 37ZM180 300L181 300L437.906 300H443C443 300 441.225 300.333 438.009 301C413.456 306.091 304.9 330.646 260.403 375.143C213.748 421.797 186.418 534.371 181 558.428C180.335 561.381 180 563 180 563V558.317L180 301L180 300ZM49.2071 169.207L179 39.4142V299H-80.5858L49.2071 169.207ZM181 301L433.19 301C429.925 301.707 425.92 302.604 421.317 303.691C408.112 306.808 389.981 311.489 370.271 317.746C330.912 330.241 285.047 349.084 259.696 374.436C233.324 400.807 213.165 447.977 199.61 488.396C192.824 508.634 187.678 527.23 184.228 540.767C182.899 545.979 181.822 550.442 181 553.96L181 301Z" fill="white"/>
<path d="M-9.8011 370.947C-14.9622 369.068 -14.9622 365.992 -9.8011 364.112L38.0465 346.7C43.2077 344.82 51.6548 344.82 56.798 346.7L104.641 364.112C109.807 365.992 109.807 369.068 104.641 370.947L56.8159 388.36C51.6548 390.239 43.2077 390.239 38.0644 388.36L-9.8011 370.947Z" fill="white" stroke="black" stroke-width="0.446465" stroke-miterlimit="10"/>
<path d="M59.5349 396.164C54.3738 394.284 54.3738 391.213 59.5349 389.333L107.378 371.921C112.539 370.046 120.986 370.046 126.152 371.921L173.995 389.333C179.156 391.213 179.156 394.284 173.995 396.164L126.152 413.576C120.986 415.456 112.539 415.456 107.378 413.576L59.5349 396.164Z" fill="white" stroke="black" stroke-width="0.446465" stroke-miterlimit="10"/>
<path d="M128.947 421.429C123.786 419.55 123.786 416.473 128.947 414.598L176.794 397.186C181.956 395.307 190.403 395.307 195.546 397.186L243.389 414.598C248.555 416.473 248.555 419.55 243.389 421.429L195.546 438.841C190.385 440.721 181.938 440.721 176.794 438.841L128.947 421.429Z" fill="#2445CD" stroke="black" stroke-width="0.446465" stroke-miterlimit="10"/>
<path d="M55.664 290.584V342.275C55.664 343.517 56.9543 344.753 59.5349 345.691L107.378 363.103C112.539 364.983 120.986 364.983 126.152 363.103L212.788 331.569C215.369 330.632 216.659 329.391 216.659 328.154V276.471L55.664 290.584Z" fill="white" stroke="black" stroke-width="0.446465" stroke-miterlimit="10"/>
<path d="M55.664 339.664L63.2896 342.436C65.3077 343.173 66.9596 342.017 66.9596 339.869V330.801C66.9047 329.671 66.531 328.578 65.8816 327.651C65.2321 326.723 64.3336 325.998 63.2896 325.56L58.7312 323.899C57.3938 323.386 56.2987 322.388 55.664 321.104" stroke="black" stroke-width="0.446465" stroke-miterlimit="10"/>
<path d="M116.763 364.514C120.169 364.514 123.571 364.067 126.139 363.108L212.775 331.574C215.356 330.636 216.646 329.395 216.646 328.158V280.797L123.603 314.729C119.834 316.104 116.749 320.51 116.749 324.52L116.763 364.514Z" fill="#EBE9E9"/>
<path d="M55.664 290.584V342.275C55.664 343.517 56.9543 344.753 59.5349 345.691L107.378 363.103C112.539 364.983 120.986 364.983 126.152 363.103L212.788 331.569C215.369 330.632 216.659 329.391 216.659 328.154V276.471L55.664 290.584Z" stroke="black" stroke-width="0.446465" stroke-miterlimit="10"/>
<path d="M59.5349 294.004C54.3738 292.124 54.3738 289.052 59.5349 287.173L146.171 255.639C151.333 253.759 159.78 253.759 164.923 255.639L212.771 273.051C217.932 274.926 217.932 278.002 212.771 279.882L126.152 311.42C120.986 313.296 112.539 313.296 107.378 311.42L59.5349 294.004Z" fill="white"/>
<path d="M212.788 279.869C217.95 277.989 217.95 274.913 212.788 273.038L181.581 261.675L114.981 283.53L102.034 304.134H115.825C119.199 304.035 122.541 303.447 125.746 302.388L149.949 293.575C153.153 292.515 156.495 291.925 159.869 291.825H180L212.788 279.869Z" fill="#2445CD" fill-opacity="0.26"/>
<path d="M59.5349 294.004C54.3738 292.124 54.3738 289.052 59.5349 287.173L146.171 255.639C151.333 253.759 159.78 253.759 164.923 255.639L212.771 273.051C217.932 274.926 217.932 278.002 212.771 279.882L126.152 311.42C120.986 313.296 112.539 313.296 107.378 311.42L59.5349 294.004Z" stroke="black" stroke-width="0.446465" stroke-miterlimit="10"/>
<path d="M190.889 271.605V230.896H139.769V271.605C139.769 272.524 140.729 273.444 142.649 274.145L158.346 279.869C162.186 281.266 168.472 281.266 172.312 279.869L188.01 274.154C189.929 273.444 190.889 272.524 190.889 271.605Z" fill="#2445CD" stroke="black" stroke-width="0.446465" stroke-miterlimit="10"/>
<path d="M165.86 280.896C168.051 280.894 170.229 280.548 172.312 279.869L188.01 274.154C189.929 273.453 190.889 272.533 190.889 271.614V230.896L165.86 240.178V280.896Z" fill="black"/>
<path d="M190.889 271.605V230.896H139.769V271.605C139.769 272.524 140.729 273.444 142.649 274.145L158.346 279.869C162.186 281.266 168.472 281.266 172.312 279.869L188.01 274.154C189.929 273.444 190.889 272.524 190.889 271.605Z" stroke="black" stroke-width="0.446465" stroke-miterlimit="10"/>
<path d="M142.649 233.436C138.809 232.034 138.809 229.749 142.649 228.351L158.346 222.636C162.186 221.239 168.472 221.239 172.312 222.636L188.01 228.351C191.849 229.749 191.849 232.034 188.01 233.436L172.312 239.151C168.472 240.548 162.186 240.548 158.346 239.151L142.649 233.436Z" fill="#2445CD" stroke="black" stroke-width="0.446465" stroke-miterlimit="10"/>
<path d="M164.302 240.182V280.887" stroke="black" stroke-width="0.446465" stroke-miterlimit="10"/>
<path d="M158.967 283.222V229.124H107.847V283.222C107.847 284.146 108.807 285.066 110.727 285.767L126.424 291.477C130.264 292.874 136.55 292.874 140.39 291.477L156.087 285.767C158.007 285.066 158.967 284.146 158.967 283.222Z" fill="#2445CD" stroke="black" stroke-width="0.446465" stroke-miterlimit="10"/>
<path d="M133.938 292.517C136.13 292.514 138.308 292.163 140.39 291.477L156.087 285.766C158.007 285.066 158.967 284.146 158.967 283.222V229.124L133.938 238.401V292.517Z" fill="black"/>
<path d="M158.967 283.222V229.124H107.847V283.222C107.847 284.146 108.807 285.066 110.727 285.767L126.424 291.477C130.264 292.874 136.55 292.874 140.39 291.477L156.087 285.767C158.007 285.066 158.967 284.146 158.967 283.222Z" stroke="black" stroke-width="0.446465" stroke-miterlimit="10"/>
<path d="M110.727 231.651C106.887 230.253 106.887 227.967 110.727 226.565L126.424 220.868C130.264 219.471 136.55 219.471 140.39 220.868L156.087 226.579C159.927 227.981 159.927 230.266 156.087 231.664L140.39 237.379C136.55 238.776 130.264 238.776 126.424 237.379L110.727 231.651Z" fill="#2445CD" stroke="black" stroke-width="0.446465" stroke-miterlimit="10"/>
<path d="M127.045 294.843V276.458H75.9247V294.843C75.9247 295.763 76.8846 296.683 78.8044 297.383L94.4976 303.085C98.3417 304.482 104.623 304.482 108.468 303.085L124.161 297.37C126.081 296.683 127.045 295.763 127.045 294.843Z" fill="#2445CD" stroke="black" stroke-width="0.446465" stroke-miterlimit="10"/>
<path d="M102.016 304.134C104.208 304.125 106.385 303.771 108.467 303.085L124.161 297.37C126.08 296.669 127.045 295.749 127.045 294.83V276.458L102.016 285.74V304.134Z" fill="black"/>
<path d="M127.045 294.843V276.458H75.9247V294.843C75.9247 295.763 76.8846 296.683 78.8044 297.383L94.4976 303.085C98.3417 304.482 104.623 304.482 108.468 303.085L124.161 297.37C126.081 296.683 127.045 295.763 127.045 294.843Z" stroke="black" stroke-width="0.446465" stroke-miterlimit="10"/>
<path d="M78.8044 279.002C74.9648 277.601 74.9648 275.315 78.8044 273.917L94.4976 268.202C98.3417 266.805 104.623 266.805 108.467 268.202L124.161 273.917C128.005 275.315 128.005 277.601 124.161 279.002L108.467 284.713C104.623 286.11 98.3417 286.11 94.4976 284.713L78.8044 279.002Z" fill="#2445CD" stroke="black" stroke-width="0.446465" stroke-miterlimit="10"/>
<path d="M132.443 238.41V292.508" stroke="black" stroke-width="0.446465" stroke-miterlimit="10"/>
<path d="M100.619 285.749V304.143" stroke="black" stroke-width="0.446465" stroke-miterlimit="10"/>
<path opacity="0.7" d="M156.971 282.293C159.07 288.052 163.878 291.638 168.825 289.834L210.654 274.591C215.119 272.966 216.976 266.948 214.878 261.198L180.795 167.668C178.696 161.908 173.808 158.35 168.937 160.127L127.112 175.396C122.415 177.106 120.785 183.035 122.884 188.79L156.971 282.293Z" fill="#2445CD"/>
<path d="M126.049 175.753C121.352 177.463 119.723 183.397 121.821 189.147L155.891 282.677C157.989 288.436 162.798 292.017 167.745 290.213L168.798 289.834C163.856 291.62 159.052 288.048 156.953 282.293L122.884 188.79C120.785 183.031 122.415 177.101 127.112 175.396L126.049 175.753Z" fill="white"/>
<path d="M183.299 284.561L210.654 274.591C215.119 272.966 216.976 266.948 214.878 261.198L180.795 167.668C178.696 161.908 173.808 158.35 168.937 160.127L141.604 170.096L183.299 284.561Z" fill="black"/>
<path d="M184.71 266.051C188.101 266.051 190.849 262.505 190.849 258.13C190.849 253.756 188.101 250.21 184.71 250.21C181.32 250.21 178.571 253.756 178.571 258.13C178.571 262.505 181.32 266.051 184.71 266.051Z" fill="white" stroke="black" stroke-width="0.446465" stroke-miterlimit="10"/>
<path d="M192.456 263.006C195.847 263.006 198.595 259.46 198.595 255.085C198.595 250.711 195.847 247.165 192.456 247.165C189.066 247.165 186.318 250.711 186.318 255.085C186.318 259.46 189.066 263.006 192.456 263.006Z" fill="#2445CD"/>
<path d="M184.71 266.051C188.101 266.051 190.849 262.505 190.849 258.13C190.849 253.756 188.101 250.21 184.71 250.21C181.32 250.21 178.571 253.756 178.571 258.13C178.571 262.505 181.32 266.051 184.71 266.051Z" stroke="black" stroke-width="0.446465" stroke-miterlimit="10"/>
<path d="M156.971 282.293C159.07 288.052 163.878 291.638 168.825 289.834L210.654 274.591C215.119 272.966 216.976 266.948 214.878 261.198L180.795 167.668C178.696 161.908 173.808 158.35 168.937 160.127L127.112 175.396C122.415 177.106 120.785 183.035 122.884 188.79L156.971 282.293Z" stroke="black" stroke-width="0.446465" stroke-miterlimit="10"/>
<path d="M154.623 196.791C155.311 198.675 156.887 199.849 158.503 199.255L164.548 197.054C166.008 196.523 166.615 194.554 165.927 192.67L162.302 182.718C161.615 180.834 160.016 179.669 158.422 180.249L152.382 182.455C150.841 183.013 150.31 184.955 150.998 186.839L154.623 196.791Z" fill="#2445CD"/>
<path d="M162.141 182.28C161.378 180.66 159.909 179.718 158.445 180.249L152.404 182.455C150.864 183.013 150.332 184.955 151.02 186.839L152.766 191.652L162.141 182.28Z" fill="white"/>
<path d="M160.257 186.241L163.186 185.142" stroke="black" stroke-width="0.446465" stroke-miterlimit="10"/>
<path d="M162.123 191.362L165.052 190.259" stroke="black" stroke-width="0.446465" stroke-miterlimit="10"/>
<path d="M151.899 189.317L155.025 188.147" stroke="black" stroke-width="0.446465" stroke-miterlimit="10"/>
<path d="M153.766 194.433L156.891 193.268" stroke="black" stroke-width="0.446465" stroke-miterlimit="10"/>
<path d="M156.619 193.13C156.949 194.022 157.703 194.598 158.485 194.317L161.382 193.255C162.083 193 162.378 192.054 162.048 191.147L160.306 186.37C159.976 185.477 159.208 184.906 158.445 185.187L155.543 186.245C154.806 186.513 154.547 187.446 154.877 188.348L156.619 193.13Z" stroke="black" stroke-width="0.446465" stroke-miterlimit="10"/>
<path d="M109.936 394.686C109.043 394.36 109.043 393.829 109.936 393.503L118.834 390.262C119.895 389.936 121.029 389.936 122.089 390.262L123.594 390.811C124.487 391.137 124.487 391.668 123.594 391.994L114.696 395.235C113.635 395.561 112.501 395.561 111.441 395.235L109.936 394.686Z" fill="black"/>
<path d="M109.262 376.305V391.931C109.262 392.146 109.485 392.378 109.936 392.525L111.441 393.074C112.501 393.4 113.635 393.4 114.696 393.074L123.594 389.833C124.04 389.668 124.268 389.454 124.268 389.239V373.626L109.262 376.305Z" fill="white" stroke="black" stroke-width="0.446465" stroke-miterlimit="10"/>
<path d="M109.936 376.894C109.043 376.569 109.043 376.037 109.936 375.711L118.834 372.47C119.895 372.144 121.029 372.144 122.089 372.47L123.594 373.019C124.487 373.345 124.487 373.876 123.594 374.202L114.696 377.444C113.635 377.769 112.501 377.769 111.441 377.444L109.936 376.894Z" fill="white" stroke="black" stroke-width="0.446465" stroke-miterlimit="10"/>
<path d="M117.022 375.403C117.885 375.403 118.584 375.127 118.584 374.787C118.584 374.447 117.885 374.171 117.022 374.171C116.159 374.171 115.459 374.447 115.459 374.787C115.459 375.127 116.159 375.403 117.022 375.403Z" stroke="black" stroke-width="0.446465" stroke-miterlimit="10"/>
<path d="M265.668 432.149C259.002 432.149 252.336 431.225 247.264 429.376L242.059 427.483L243.126 424.546L248.331 426.443C257.89 429.921 273.445 429.921 283.004 426.443L299.389 420.478C316.663 414.188 326.57 405.651 326.57 397.057C326.57 388.462 316.663 379.921 299.389 373.626L231.66 348.981L170.526 371.233C167.279 372.401 163.771 372.639 160.397 371.921C157.022 371.202 153.915 369.555 151.426 367.166C147.346 363.215 141.131 358.063 134.684 355.951C131.188 354.803 128.125 355.156 125.58 357C120.776 360.482 118.584 368.662 118.584 374.787H115.459C115.459 367.644 118.022 358.616 123.745 354.468C127.103 352.04 131.219 351.526 135.662 352.982C142.667 355.281 149.283 360.741 153.6 364.92C155.667 366.903 158.245 368.27 161.047 368.867C163.848 369.463 166.76 369.265 169.454 368.295L231.66 345.655L300.461 370.697C319.315 377.56 329.695 386.918 329.695 397.039C329.695 407.16 319.315 416.532 300.461 423.38L284.071 429.376C278.999 431.22 272.333 432.149 265.668 432.149Z" fill="white"/>
<path d="M115.459 374.787C115.459 367.644 118.022 358.616 123.745 354.468C127.103 352.04 131.219 351.526 135.662 352.982C142.667 355.281 149.283 360.741 153.6 364.92C155.667 366.903 158.245 368.27 161.047 368.867C163.848 369.463 166.76 369.265 169.454 368.295L231.66 345.655L300.461 370.697C319.315 377.56 329.695 386.918 329.695 397.039C329.695 407.16 319.315 416.532 300.461 423.38L284.071 429.376C278.999 431.225 272.333 432.149 265.668 432.149C259.002 432.149 252.327 431.22 247.264 429.376L242.059 427.483" stroke="black" stroke-width="0.446465" stroke-miterlimit="10"/>
<path d="M243.126 424.546L248.331 426.443C257.89 429.921 273.445 429.921 283.004 426.443L299.389 420.478C316.663 414.188 326.57 405.651 326.57 397.057C326.57 388.462 316.663 379.921 299.389 373.626L231.66 348.981L170.526 371.233C167.28 372.401 163.771 372.639 160.397 371.921C157.022 371.202 153.915 369.555 151.426 367.166C147.346 363.215 141.131 358.063 134.684 355.951C131.188 354.803 128.125 355.156 125.58 357C120.776 360.482 118.584 368.662 118.584 374.787" stroke="black" stroke-width="0.446465" stroke-miterlimit="10"/>
<path d="M322.971 242.187C325.824 234.361 323.61 226.297 317.23 223.971L272.467 207.653C265.851 205.242 259.207 210.073 256.354 217.899L221.61 313.233L255.591 368.532L198.363 389.36C193.202 391.239 193.202 394.315 198.363 396.195L246.206 413.607C251.367 415.487 259.814 415.487 264.98 413.607L306.68 398.427C315.221 395.302 318.288 386.444 313.551 378.698L295.585 349.49C291.54 342.905 290.393 331.578 293.036 324.319L322.971 242.187Z" fill="white" stroke="black" stroke-width="0.446465" stroke-miterlimit="10"/>
<path d="M283.758 341.115L247.488 328.328L238.558 335.306L255.6 368.532L212.029 384.391L275.427 407.473C281.464 405.026 289.982 401.606 302.586 396.834C307.609 394.932 312.747 392.369 312.747 386.306C312.747 381.551 311.636 381.6 293.581 351.973C291.616 348.718 288.214 342.686 283.758 341.115Z" fill="#2445CD" fill-opacity="0.26"/>
<path d="M245.822 412.147C248.876 412.998 252.028 413.449 255.198 413.487C263.708 413.487 262.993 411.826 302.613 396.825C307.635 394.923 312.774 392.36 312.774 386.297C312.774 381.542 311.662 381.591 293.607 351.964C291.63 348.709 288.25 342.677 283.785 341.106L247.514 328.319" stroke="black" stroke-width="0.446465" stroke-miterlimit="10"/>
<path d="M267.266 378.868C264.418 386.694 257.89 391.565 251.153 389.136L194.287 368.398C187.389 365.885 185.692 358.009 188.545 350.182L249.528 182.906C252.381 175.079 259.024 170.244 265.645 172.637L322.494 193.357C328.874 195.683 331.088 203.746 328.235 211.573L267.266 378.868Z" fill="#2445CD" fill-opacity="0.26" stroke="black" stroke-width="0.446465" stroke-miterlimit="10"/>
<path d="M329.182 201.385C329.182 201.385 328.141 197.813 326.806 196.447L320.837 194.214L321.458 198.643L329.182 201.385Z" fill="black"/>
<path d="M328.226 211.591C328.764 210.121 329.131 208.595 329.32 207.041L322.833 204.747L255.979 384.395L262.377 386.489C264.594 384.373 266.278 381.761 267.288 378.868L328.226 211.591Z" fill="black"/>
<path d="M261.6 376.805C258.747 384.632 252.225 389.503 245.487 387.074L188.635 366.358C182.572 364.148 180.045 355.969 182.898 348.142L243.844 180.843C246.697 173.016 253.341 168.181 259.957 170.574L316.806 191.295C323.19 193.621 325.4 201.684 322.547 209.51L261.6 376.805Z" fill="#2445CD" fill-opacity="0.26" stroke="black" stroke-width="0.446465" stroke-miterlimit="10"/>
<path d="M315.725 243.454C315.992 242.717 315.61 241.903 314.873 241.637C314.136 241.37 313.323 241.752 313.056 242.489L307.215 258.638C306.948 259.375 307.33 260.188 308.067 260.455C308.804 260.722 309.617 260.34 309.884 259.603L315.725 243.454Z" fill="#2445CD" fill-opacity="0.26" stroke="black" stroke-width="0.446286" stroke-miterlimit="10"/>
<path d="M315.725 193.759L311.261 192.134C310.684 191.958 310.071 191.94 309.485 192.082C308.899 192.225 308.362 192.521 307.93 192.942L305.903 195.139C305.179 195.842 304.28 196.337 303.299 196.573C302.317 196.809 301.291 196.776 300.327 196.478L268.668 184.95C267.753 184.569 266.97 183.928 266.414 183.107C265.859 182.286 265.556 181.321 265.543 180.329L265.628 177.588C265.62 176.996 265.44 176.419 265.108 175.929C264.776 175.438 264.308 175.056 263.761 174.829L259.265 173.186C253.814 171.204 248.349 175.182 246.001 181.624L185.036 348.901C182.688 355.344 184.768 362.072 189.76 363.893L246.202 384.458C251.734 386.476 257.113 382.466 259.462 376.024L320.427 208.747C322.775 202.304 320.953 195.67 315.725 193.759Z" fill="white"/>
<path d="M189.76 363.893L246.202 384.458C251.733 386.476 257.113 382.466 259.462 376.024L263.123 365.983L320.426 208.747C322.775 202.304 320.953 195.67 315.703 193.759L311.238 192.134C310.662 191.958 310.048 191.94 309.462 192.082C308.876 192.225 308.339 192.522 307.908 192.942L305.903 195.139C305.179 195.842 304.28 196.337 303.298 196.573C302.317 196.809 301.291 196.776 300.327 196.478L271.485 185.968L268.677 184.941C267.762 184.56 266.978 183.919 266.423 183.098C265.868 182.277 265.565 181.312 265.551 180.321L265.636 177.579C265.629 176.987 265.448 176.41 265.117 175.92C264.785 175.429 264.317 175.047 263.77 174.82L259.274 173.177C253.823 171.195 248.358 175.173 246.01 181.615" stroke="black" stroke-width="0.446465" stroke-miterlimit="10"/>
<path d="M278.173 310.376C275.807 316.858 270.391 320.894 264.819 318.858L217.713 301.701C212.686 299.87 210.569 293.093 212.958 286.606L235.165 225.668C237.527 219.185 243.032 215.18 248.519 217.185L295.634 234.329C300.92 236.258 302.755 242.937 300.389 249.42L278.173 310.376Z" fill="#2445CD"/>
<path d="M290.277 187.424C290.22 187.589 290.129 187.74 290.011 187.869C289.893 187.997 289.75 188.1 289.59 188.17C289.43 188.24 289.258 188.277 289.083 188.278C288.909 188.278 288.736 188.243 288.576 188.174L281.013 185.419C280.684 185.306 280.413 185.068 280.26 184.756C280.106 184.443 280.083 184.083 280.196 183.754L280.218 183.691C280.275 183.527 280.366 183.376 280.484 183.248C280.603 183.12 280.746 183.017 280.906 182.947C281.065 182.877 281.237 182.84 281.412 182.839C281.586 182.838 281.759 182.873 281.919 182.941L289.478 185.7C289.643 185.753 289.795 185.839 289.927 185.952C290.058 186.065 290.165 186.203 290.242 186.359C290.319 186.514 290.363 186.683 290.373 186.856C290.383 187.029 290.358 187.203 290.299 187.366L290.277 187.424Z" stroke="black" stroke-width="0.446465" stroke-miterlimit="10" stroke-linecap="round"/>
<path d="M295.153 189.217C295.48 188.336 295.156 187.403 294.428 187.132C293.7 186.861 292.844 187.356 292.517 188.236C292.189 189.117 292.514 190.05 293.242 190.321C293.97 190.592 294.825 190.097 295.153 189.217Z" stroke="black" stroke-width="0.446465" stroke-miterlimit="10"/>
<path d="M247.336 350.553C245.952 354.348 242.643 356.656 239.161 355.388L209.694 344.673C206.569 343.526 205.167 339.503 206.569 335.708C207.953 331.913 211.315 329.623 214.744 330.873L244.188 341.588C247.496 342.789 248.72 346.754 247.336 350.549V350.553Z" fill="black"/>
<path d="M197.991 355.587C198.84 353.262 197.95 350.8 196.002 350.088C194.055 349.377 191.787 350.685 190.937 353.01C190.088 355.335 190.978 357.797 192.926 358.509C194.874 359.22 197.141 357.912 197.991 355.587Z" fill="#EBE9E9"/>
<path d="M211.461 360.494C212.31 358.169 211.42 355.707 209.472 354.995C207.524 354.284 205.257 355.592 204.407 357.917C203.558 360.242 204.448 362.704 206.396 363.416C208.344 364.127 210.611 362.819 211.461 360.494Z" fill="#EBE9E9"/>
<path d="M224.939 365.398C225.789 363.073 224.899 360.611 222.951 359.899C221.003 359.188 218.735 360.496 217.886 362.821C217.036 365.146 217.927 367.608 219.874 368.32C221.822 369.032 224.09 367.723 224.939 365.398Z" fill="#EBE9E9"/>
<path d="M238.414 370.301C239.263 367.975 238.373 365.513 236.425 364.802C234.477 364.09 232.21 365.398 231.36 367.724C230.51 370.049 231.401 372.511 233.348 373.222C235.296 373.934 237.564 372.626 238.414 370.301Z" fill="#EBE9E9"/>
<path d="M251.888 375.205C252.737 372.879 251.847 370.417 249.899 369.706C247.951 368.994 245.684 370.302 244.834 372.628C243.985 374.953 244.875 377.415 246.823 378.126C248.77 378.838 251.038 377.53 251.888 375.205Z" fill="#EBE9E9"/>
<path d="M222.123 285.257L219.753 284.394L216.91 292.196L219.281 293.06L222.123 285.257Z" fill="white"/>
<path d="M227.44 285.404L225.07 284.54L223.708 288.278L226.078 289.141L227.44 285.404Z" fill="white"/>
<path d="M236.107 276.36L233.736 275.496L228.451 290.002L230.821 290.866L236.107 276.36Z" fill="white"/>
<path d="M242.097 274.669L239.727 273.805L237.023 281.226L239.393 282.089L242.097 274.669Z" fill="white"/>
<path d="M244.452 282.961L242.082 282.097L239.083 290.327L241.453 291.191L244.452 282.961Z" fill="white"/>
<path d="M251.331 278.812L248.961 277.948L243.676 292.454L246.046 293.318L251.331 278.812Z" fill="white"/>
<path d="M261.977 264.349L259.607 263.485L251.099 286.834L253.469 287.697L261.977 264.349Z" fill="white"/>
<path d="M262.248 278.976L259.877 278.118L257.088 285.828L259.459 286.685L262.248 278.976Z" fill="white"/>
<path d="M267.68 278.179L265.31 277.315L260.025 291.821L262.395 292.685L267.68 278.179Z" fill="white"/>
<path d="M281.166 255.91L278.796 255.047L270.139 278.806L272.509 279.67L281.166 255.91Z" fill="white"/>
<path d="M277.983 279.411L275.613 278.547L273.044 285.599L275.414 286.463L277.983 279.411Z" fill="white"/>
<path d="M284.074 278.01L281.703 277.153L275.356 294.699L277.727 295.557L284.074 278.01Z" fill="white"/>
<path d="M242.059 427.483L238.764 426.282C235.424 425.068 233.92 423.282 232.589 421.702C231.259 420.121 230.183 418.844 227.374 417.822L217.615 414.25C215.797 413.588 214.129 412.57 212.709 411.256C211.289 409.942 210.146 408.358 209.345 406.596C208.545 404.835 208.104 402.932 208.048 400.998C207.993 399.064 208.323 397.138 209.02 395.333L213.007 384.998L215.923 386.123L211.936 396.459C211.385 397.877 211.123 399.392 211.166 400.913C211.209 402.434 211.555 403.932 212.185 405.317C212.815 406.703 213.715 407.948 214.833 408.981C215.951 410.014 217.264 410.812 218.695 411.33L228.455 414.902C232.027 416.21 233.616 418.067 234.996 419.706C236.228 421.17 237.29 422.434 239.844 423.367L243.139 424.564L242.059 427.483Z" fill="white"/>
<path d="M242.059 427.483L238.764 426.282C235.424 425.068 233.92 423.282 232.589 421.702C231.259 420.121 230.183 418.844 227.374 417.822L217.615 414.25C215.797 413.588 214.129 412.57 212.709 411.256C211.289 409.942 210.146 408.358 209.345 406.596C208.545 404.835 208.104 402.932 208.048 400.998C207.993 399.064 208.323 397.138 209.02 395.333L213.007 384.998L215.923 386.123L211.936 396.459C211.385 397.877 211.123 399.392 211.166 400.913C211.209 402.434 211.555 403.932 212.185 405.317C212.815 406.703 213.715 407.948 214.833 408.981C215.951 410.014 217.264 410.812 218.695 411.33L228.455 414.902C232.027 416.21 233.616 418.067 234.996 419.706C236.228 421.17 237.29 422.434 239.844 423.367L243.139 424.564" stroke="black" stroke-width="0.446465" stroke-miterlimit="10"/>
<path d="M210.532 374.281L224.346 379.328L220.036 391.124C219.76 391.881 219.194 392.496 218.464 392.835C217.734 393.175 216.899 393.21 216.143 392.934L208.032 389.971C207.276 389.695 206.661 389.129 206.321 388.399C205.982 387.669 205.946 386.834 206.223 386.077L210.532 374.281Z" fill="white" stroke="black" stroke-width="0.446465" stroke-miterlimit="10"/>
<path d="M222.129 378.515L217.003 391.766" stroke="black" stroke-width="0.446465" stroke-miterlimit="10"/>
<path d="M46.0606 349.428C46.0606 348.874 45.6989 335.771 57.2936 331.297L58.7401 335.047C55.0523 336.472 52.4896 339.244 51.0922 343.289C50.4322 345.221 50.0899 347.248 50.0787 349.29L46.0606 349.428Z" fill="black"/>
<path d="M59.8324 335.797C60.9669 335.435 61.4561 333.793 60.925 332.13C60.394 330.467 59.0438 329.413 57.9092 329.775C56.7747 330.137 56.2855 331.779 56.8166 333.442C57.3476 335.105 58.6979 336.16 59.8324 335.797Z" fill="black"/>
<path d="M52.6103 338.123C52.3535 338.119 52.1032 338.042 51.8893 337.9C51.6754 337.757 51.5069 337.557 51.4038 337.322C51.3008 337.086 51.2676 336.826 51.3081 336.573C51.3486 336.319 51.4613 336.082 51.6325 335.891C53.2723 334.14 55.2914 332.789 57.5348 331.94C57.6989 331.877 57.874 331.846 58.0499 331.851C58.2258 331.855 58.3991 331.894 58.56 331.965C58.7208 332.036 58.8661 332.139 58.9874 332.266C59.1087 332.394 59.2037 332.544 59.2671 332.708C59.3304 332.872 59.3608 333.047 59.3564 333.223C59.3521 333.399 59.3132 333.572 59.2419 333.733C59.1706 333.894 59.0683 334.039 58.9408 334.16C58.8134 334.282 58.6633 334.377 58.4991 334.44C56.6345 335.145 54.955 336.266 53.588 337.717C53.4612 337.848 53.3091 337.951 53.141 338.021C52.9729 338.091 52.7923 338.126 52.6103 338.123Z" fill="#2445CD"/>
<path d="M48.0653 350.754C50.0157 350.754 51.5968 350.128 51.5968 349.356C51.5968 348.585 50.0157 347.959 48.0653 347.959C46.1149 347.959 44.5338 348.585 44.5338 349.356C44.5338 350.128 46.1149 350.754 48.0653 350.754Z" fill="black"/>
<path d="M27.9966 373.626C21.5586 371.287 21.5586 367.452 27.9966 365.108L44.7212 359.036C51.1592 356.692 61.6869 356.692 68.1338 359.036C74.5808 361.38 74.5718 365.215 68.1338 367.559L51.4182 373.626C44.9712 375.988 34.4525 375.988 27.9966 373.626Z" fill="#2445CD" fill-opacity="0.26"/>
<path d="M65.6694 362.018C60.1243 360 51.0566 360 45.5116 362.018L30.6353 367.429C26.5011 368.934 25.4519 371.001 27.4833 372.876C28.0146 373.158 28.8227 373.836 29.5013 374.064C35.1045 375.85 45.5205 375.823 51.4897 373.649L66.9954 368.005C67.866 367.701 68.7 367.302 69.4822 366.813C70.5002 365.144 69.2278 363.309 65.6694 362.018Z" fill="#2445CD"/>
<path d="M27.9966 373.626C21.5586 371.287 21.5586 367.452 27.9966 365.108L44.7212 359.036C51.1592 356.692 61.6869 356.692 68.1338 359.036C74.5808 361.38 74.5718 365.215 68.1338 367.559L51.4182 373.626C44.9712 375.988 34.4525 375.988 27.9966 373.626Z" stroke="black" stroke-width="0.446465" stroke-miterlimit="10"/>
<path d="M70.6162 360.197C67.7186 358.447 62.4503 357.272 56.4275 357.272C50.4047 357.272 45.132 358.447 42.2344 360.197H39.8771V364.661C39.8771 367.987 47.2839 370.684 56.4275 370.684C57.7021 370.684 58.9755 370.605 60.2403 370.448C64.8791 368.729 69.8795 366.791 72.2949 365.126C72.7123 364.597 72.9529 363.95 72.9824 363.277V360.179L70.6162 360.197Z" fill="white"/>
<path d="M56.4185 357.272V370.702C57.6234 370.701 58.8276 370.636 60.0259 370.51L68.4775 367.434C70.3571 366.751 72.9421 365.108 72.9421 363.295V360.197H70.616C67.7095 358.447 62.4413 357.272 56.4185 357.272Z" fill="#2445CD" fill-opacity="0.26"/>
<path d="M70.6162 360.197C67.7186 358.447 62.4503 357.272 56.4275 357.272C50.4047 357.272 45.132 358.447 42.2344 360.197H39.8771V364.661C39.8771 367.987 47.2839 370.684 56.4275 370.684C56.9901 370.684 58.9233 370.604 60.0349 370.492L68.4865 367.416C71.5136 366.077 72.9512 364.858 72.9512 363.277V360.179L70.6162 360.197Z" stroke="black" stroke-width="0.446465" stroke-miterlimit="10"/>
<path d="M56.4185 366.219C65.5591 366.219 72.969 363.523 72.969 360.197C72.969 356.87 65.5591 354.174 56.4185 354.174C47.278 354.174 39.8681 356.87 39.8681 360.197C39.8681 363.523 47.278 366.219 56.4185 366.219Z" fill="white" stroke="black" stroke-width="0.446465" stroke-miterlimit="10"/>
<path d="M66.482 395.07C69.9883 395.07 72.8307 393.947 72.8307 392.561C72.8307 391.175 69.9883 390.052 66.482 390.052C62.9757 390.052 60.1333 391.175 60.1333 392.561C60.1333 393.947 62.9757 395.07 66.482 395.07Z" stroke="black" stroke-width="0.446465" stroke-miterlimit="10"/>
<path d="M70.1698 392.561H62.7808V389.342C62.7831 388.376 63.1677 387.451 63.8505 386.768C64.5332 386.086 65.4584 385.701 66.4239 385.699C67.4199 385.702 68.374 386.099 69.0782 386.804C69.7825 387.508 70.1796 388.462 70.1832 389.458L70.1698 392.561Z" fill="#2445CD"/>
<path d="M66.4821 394.025C68.5286 394.025 70.1877 393.37 70.1877 392.561C70.1877 391.752 68.5286 391.096 66.4821 391.096C64.4355 391.096 62.7764 391.752 62.7764 392.561C62.7764 393.37 64.4355 394.025 66.4821 394.025Z" fill="#2445CD"/>
<path d="M68.1071 390.829C68.7384 390.829 69.2501 390.317 69.2501 389.686C69.2501 389.054 68.7384 388.543 68.1071 388.543C67.4759 388.543 66.9642 389.054 66.9642 389.686C66.9642 390.317 67.4759 390.829 68.1071 390.829Z" fill="white"/>
<path d="M140.149 324.426C139.203 324.824 138.39 325.481 137.802 326.322C137.214 327.162 136.876 328.152 136.827 329.176V340.588C136.827 342.534 138.323 343.584 140.149 342.918L149.587 339.481C150.533 339.085 151.348 338.429 151.936 337.589C152.525 336.749 152.864 335.759 152.913 334.735V323.319C152.913 321.372 151.417 320.327 149.587 320.992L140.149 324.426Z" fill="black"/>
<path d="M145.35 335.592V336.721L144.287 337.132V336.029C144.078 336.095 143.856 336.104 143.642 336.057C143.429 336.01 143.231 335.908 143.068 335.762C142.733 335.365 142.561 334.856 142.586 334.337L143.769 333.891C143.814 334.275 143.912 334.516 144.077 334.619C144.193 334.668 144.318 334.69 144.443 334.684C144.568 334.678 144.691 334.643 144.801 334.583C145.07 334.5 145.305 334.329 145.466 334.098C145.628 333.867 145.708 333.588 145.694 333.306C145.706 333.203 145.697 333.099 145.667 333C145.637 332.901 145.587 332.809 145.519 332.73C145.437 332.675 145.343 332.64 145.245 332.625C145.147 332.61 145.047 332.617 144.952 332.645L144.444 332.73C144.229 332.794 144.003 332.809 143.782 332.776C143.56 332.743 143.349 332.662 143.162 332.538C143.005 332.373 142.887 332.175 142.814 331.959C142.742 331.744 142.717 331.514 142.742 331.288C142.737 330.721 142.88 330.162 143.158 329.667C143.424 329.184 143.812 328.777 144.283 328.489V327.538L145.345 327.127V328.087C145.534 328.048 145.73 328.057 145.914 328.112C146.099 328.167 146.267 328.268 146.404 328.404C146.698 328.762 146.857 329.213 146.85 329.676L145.622 330.15C145.628 330.029 145.609 329.909 145.566 329.796C145.524 329.683 145.46 329.58 145.377 329.493C145.282 329.44 145.175 329.413 145.066 329.413C144.958 329.413 144.851 329.44 144.756 329.493C144.519 329.577 144.314 329.733 144.171 329.94C144.031 330.163 143.959 330.422 143.966 330.685C143.953 330.782 143.964 330.88 143.998 330.972C144.031 331.064 144.086 331.146 144.158 331.212C144.357 331.312 144.586 331.335 144.801 331.275L145.386 331.181C145.584 331.124 145.793 331.116 145.995 331.158C146.197 331.199 146.386 331.288 146.546 331.417C146.692 331.591 146.801 331.793 146.867 332.01C146.933 332.227 146.955 332.455 146.93 332.681C146.943 333.274 146.798 333.859 146.511 334.378C146.236 334.876 145.836 335.295 145.35 335.592Z" fill="white"/>
<path d="M172.29 312.729C171.343 313.126 170.529 313.783 169.94 314.623C169.352 315.464 169.013 316.454 168.963 317.479V328.899C168.963 330.846 170.459 331.895 172.29 331.23L181.723 327.792C182.67 327.396 183.484 326.74 184.073 325.9C184.661 325.06 185 324.071 185.05 323.046V311.621C185.05 309.675 183.554 308.63 181.723 309.295L172.29 312.729Z" fill="black"/>
<path d="M172.513 321.301V319.604C172.495 319.113 172.617 318.626 172.866 318.202C173.112 317.822 173.475 317.532 173.901 317.376C174.379 317.193 174.727 317.198 174.951 317.376C175.081 317.534 175.179 317.716 175.236 317.913C175.294 318.11 175.311 318.316 175.285 318.519V320.22C175.305 320.731 175.189 321.237 174.951 321.689C174.712 322.087 174.34 322.389 173.901 322.542C173.424 322.729 173.071 322.716 172.848 322.502C172.585 322.16 172.465 321.729 172.513 321.301ZM174.223 320.582V319.095C174.235 318.892 174.216 318.689 174.165 318.492C174.129 318.394 174.04 318.372 173.901 318.425C173.839 318.448 173.783 318.484 173.737 318.531C173.691 318.579 173.655 318.635 173.633 318.698C173.585 318.91 173.566 319.128 173.575 319.345V320.832C173.565 321.03 173.583 321.228 173.629 321.421C173.669 321.519 173.758 321.537 173.901 321.484C173.964 321.466 174.021 321.433 174.068 321.388C174.114 321.342 174.149 321.286 174.169 321.225C174.214 321.014 174.232 320.798 174.223 320.582ZM179.254 315.318L175.276 325.185L174.263 325.578L178.232 315.711L179.254 315.318ZM178.214 322.332V320.631C178.195 320.14 178.318 319.653 178.567 319.229C178.812 318.848 179.176 318.557 179.603 318.403C180.08 318.22 180.429 318.224 180.652 318.403C180.783 318.56 180.881 318.743 180.938 318.94C180.996 319.136 181.012 319.343 180.987 319.546V321.247C181.006 321.758 180.891 322.264 180.652 322.716C180.413 323.114 180.042 323.416 179.603 323.569C179.125 323.752 178.772 323.738 178.549 323.528C178.288 323.188 178.168 322.759 178.214 322.332ZM179.924 321.613V320.126C179.937 319.924 179.917 319.72 179.866 319.524C179.83 319.425 179.741 319.403 179.603 319.457C179.541 319.479 179.485 319.516 179.438 319.563C179.392 319.61 179.357 319.667 179.335 319.729C179.287 319.941 179.267 320.159 179.277 320.376V321.863C179.266 322.061 179.284 322.26 179.33 322.453C179.371 322.551 179.46 322.569 179.603 322.515C179.665 322.497 179.722 322.464 179.769 322.419C179.816 322.374 179.851 322.318 179.871 322.256C179.918 322.045 179.939 321.829 179.933 321.613H179.924Z" fill="white"/>
</g>
<defs>
<clipPath id="clip0_52_8473">
<rect width="360" height="600" rx="50" fill="white"/>
</clipPath>
</defs>
</svg>
