<svg width="55" height="55" viewBox="0 0 55 55" fill="none" xmlns="http://www.w3.org/2000/svg">
<circle cx="27.5" cy="27.5" r="27.5" fill="black"/>
<path d="M22.3521 32.0379C25.235 34.9208 29.8908 34.9208 32.7571 32.0545C35.6069 29.2047 35.6069 24.549 32.724 21.6661C29.8742 18.8163 25.235 18.8328 22.3852 21.6826C19.5189 24.549 19.5189 29.2047 22.3521 32.0379Z" fill="#FFE300"/>
<path d="M22.0203 20.208C21.7221 20.5062 21.7221 21.0033 22.0203 21.3015L20.2806 19.5618C18.9551 18.2364 18.9551 16.0825 20.2806 14.7736L27.5542 7.5L34.8277 14.7736C36.1532 16.099 36.1532 18.2529 34.8277 19.5618L33.088 21.3015C33.3863 21.0033 33.3863 20.5062 33.088 20.208L27.5707 14.6741L22.0203 20.208Z" fill="white"/>
<path d="M26.6762 38.2013C27.2726 38.7978 27.5708 39.5765 27.5543 40.3552C27.5543 39.5765 27.8525 38.7978 28.4324 38.2013L39.7487 26.8851L34.2645 21.4009L37.8599 17.8055L43.8576 23.8033C45.5476 25.4933 45.5476 28.2768 43.8576 29.9668L27.5708 46.2701L11.2675 29.9668C9.5775 28.2768 9.5775 25.4933 11.2675 23.8033L17.2653 17.8055L20.8606 21.4009L15.3599 26.8851L26.6762 38.2013Z" fill="white"/>
</svg>
