<svg width="156" height="59" viewBox="0 0 156 59" fill="none" xmlns="http://www.w3.org/2000/svg">
<path fill-rule="evenodd" clip-rule="evenodd" d="M15.1458 14.75L29.8958 0V29.5H59.3958C59.3958 29.5 44.5594 32.2835 38.9144 37.9286C33.0389 43.804 29.8958 59 29.8958 59L29.8958 29.5L0.395844 29.5L15.1458 14.75Z" fill="#2445CD"/>
<path d="M79.9839 38.6229C78.4598 38.6229 77.2798 38.4672 76.4439 38.1558C75.6245 37.8444 75.0509 37.361 74.7231 36.7054C74.3953 36.0335 74.2068 35.1894 74.1577 34.1733L73.6414 20.505H77.0831L77.5993 32.5262C77.6321 33.2801 77.7141 33.8456 77.8452 34.2225C77.9763 34.5994 78.2221 34.8535 78.5827 34.9846C78.9596 35.1157 79.5086 35.1813 80.2298 35.1813C80.8525 35.1813 81.295 35.3451 81.5573 35.6729C81.8359 35.9843 81.9752 36.3776 81.9752 36.8529C81.9752 37.361 81.8031 37.7871 81.4589 38.1313C81.1148 38.459 80.6231 38.6229 79.9839 38.6229ZM88.2773 43.9083C87.1137 43.9083 86.0403 43.6543 85.0569 43.1463C84.0736 42.6546 83.2869 41.8761 82.6969 40.8108C82.1069 39.7619 81.8119 38.4099 81.8119 36.7546C81.8119 35.296 81.984 33.9603 82.3282 32.7475C82.6723 31.5183 83.1394 30.4613 83.7294 29.5763C84.3358 28.6749 85.0159 27.9783 85.7698 27.4867C86.5237 26.995 87.3186 26.7492 88.1544 26.7492C88.7772 26.7492 89.3672 26.9294 89.9244 27.29C90.4816 27.6342 90.9405 28.1422 91.3011 28.8142C91.6616 29.4861 91.8419 30.3056 91.8419 31.2725C91.8419 31.7969 91.7354 32.3869 91.5223 33.0425C91.3093 33.6981 90.9323 34.3208 90.3915 34.9108C89.8671 35.4844 89.1296 35.9433 88.179 36.2875L88.769 34.3454C89.2934 34.5421 89.8589 34.706 90.4653 34.8371C91.0716 34.9518 91.7026 35.0419 92.3582 35.1075C93.0137 35.1567 93.6529 35.1813 94.2757 35.1813C94.8984 35.1813 95.3409 35.3451 95.6032 35.6729C95.8818 35.9843 96.0211 36.3776 96.0211 36.8529C96.0211 37.361 95.849 37.7871 95.5048 38.1313C95.1607 38.459 94.669 38.6229 94.0298 38.6229C93.5709 38.6229 93.0465 38.5983 92.4565 38.5492C91.8829 38.5 91.3175 38.4344 90.7603 38.3525C90.2194 38.2706 89.7605 38.1804 89.3836 38.0821L92.0632 37.4675C92.4401 37.9264 92.6941 38.4344 92.8253 38.9917C92.9728 39.5653 92.9891 40.1389 92.8744 40.7125C92.7761 41.2861 92.5384 41.8106 92.1615 42.2858C91.8009 42.7775 91.2929 43.1708 90.6373 43.4658C89.9982 43.7608 89.2115 43.9083 88.2773 43.9083ZM80.0173 38.6229L80.2632 35.1813C80.5418 35.1813 80.9105 35.1813 81.3694 35.1813C81.8447 35.1813 82.2626 35.1813 82.6232 35.1813L82.8936 38.3033C82.4183 38.4017 81.9021 38.4754 81.3448 38.5246C80.804 38.5901 80.3615 38.6229 80.0173 38.6229ZM88.179 40.5158C88.5068 40.5158 88.7772 40.4585 88.9903 40.3437C89.2033 40.2454 89.359 40.0979 89.4573 39.9013C89.5721 39.721 89.6294 39.5161 89.6294 39.2867C89.6294 39.09 89.5639 38.8688 89.4328 38.6229C89.3016 38.3771 89.0558 38.164 88.6953 37.9837C88.3347 37.7871 87.8184 37.6888 87.1465 37.6888C86.9007 37.6888 86.6303 37.7051 86.3353 37.7379C86.0566 37.7707 85.7534 37.8199 85.4257 37.8854C85.0979 37.9346 84.7619 38.0001 84.4178 38.0821L84.5407 35.1321C85.1634 35.0829 85.7207 34.9846 86.2123 34.8371C86.704 34.6732 87.1137 34.4601 87.4415 34.1979C87.7857 33.9193 88.0479 33.5833 88.2282 33.19C88.4084 32.7967 88.4986 32.3378 88.4986 31.8133C88.4986 31.5511 88.474 31.2971 88.4248 31.0513C88.3757 30.789 88.3019 30.576 88.2036 30.4121C88.1053 30.2318 87.9823 30.1417 87.8348 30.1417C87.5726 30.1417 87.294 30.2892 86.999 30.5842C86.704 30.8792 86.4254 31.3053 86.1632 31.8625C85.9009 32.4033 85.6797 33.0589 85.4994 33.8292C85.3355 34.5831 85.2536 35.4271 85.2536 36.3612C85.2536 37.1479 85.3355 37.8117 85.4994 38.3525C85.6633 38.8769 85.8846 39.2949 86.1632 39.6062C86.4418 39.934 86.7532 40.1635 87.0973 40.2946C87.4579 40.4421 87.8184 40.5158 88.179 40.5158ZM118.719 38.6229C117.883 38.6229 117.08 38.5492 116.309 38.4017C115.539 38.2378 114.843 38.0247 114.22 37.7625C113.613 37.5003 113.114 37.2053 112.72 36.8775L114.933 34.4929C115.523 34.7388 116.129 34.919 116.752 35.0338C117.375 35.1321 118.112 35.1813 118.964 35.1813C119.587 35.1813 120.03 35.3451 120.292 35.6729C120.571 35.9843 120.71 36.3776 120.71 36.8529C120.71 37.361 120.538 37.7871 120.194 38.1313C119.849 38.459 119.358 38.6229 118.719 38.6229ZM106.796 38.9425C105.272 38.9425 104.001 38.8769 102.985 38.7458C101.986 38.6147 101.174 38.4263 100.552 38.1804C99.9287 37.9346 99.4371 37.6396 99.0765 37.2954C98.716 36.9513 98.421 36.5743 98.1915 36.1646L98.8799 35.9679C98.4701 36.7546 98.0031 37.3364 97.4786 37.7133C96.9542 38.0903 96.4051 38.3361 95.8315 38.4508C95.2579 38.5656 94.6679 38.6229 94.0615 38.6229L94.3074 35.1813C94.8154 35.1813 95.2169 35.0993 95.5119 34.9354C95.8069 34.7715 96.0446 34.5011 96.2249 34.1242C96.4215 33.7472 96.6018 33.2474 96.7657 32.6246C96.9296 32.0018 97.1262 31.2397 97.3557 30.3383L100.478 31.1004C100.363 31.5429 100.265 31.9281 100.183 32.2558C100.117 32.5836 100.06 32.8704 100.011 33.1162C99.9779 33.3457 99.9615 33.5342 99.9615 33.6817C99.9615 33.9931 100.035 34.2717 100.183 34.5175C100.33 34.7469 100.617 34.9354 101.043 35.0829C101.469 35.214 102.092 35.3206 102.912 35.4025C103.747 35.4681 104.837 35.5008 106.181 35.5008C107.607 35.5008 108.795 35.4517 109.746 35.3533C110.696 35.2386 111.45 35.0829 112.007 34.8863C112.581 34.6732 112.991 34.4192 113.237 34.1242C113.482 33.8128 113.605 33.4604 113.605 33.0671C113.605 32.7557 113.532 32.4689 113.384 32.2067C113.253 31.9281 113.032 31.6986 112.72 31.5183C112.409 31.3381 112.007 31.2479 111.516 31.2479C110.926 31.2479 110.327 31.3954 109.721 31.6904C109.131 31.969 108.549 32.346 107.976 32.8213C107.402 33.2801 106.853 33.7964 106.329 34.37C105.821 34.9436 105.362 35.5172 104.952 36.0908L101.264 35.6729C101.904 34.6404 102.625 33.6489 103.428 32.6983C104.231 31.7478 105.091 30.9119 106.009 30.1908C106.927 29.4533 107.877 28.8715 108.861 28.4454C109.844 28.0193 110.844 27.8062 111.86 27.8062C112.958 27.8062 113.892 28.0193 114.662 28.4454C115.433 28.8715 116.023 29.4615 116.432 30.2154C116.842 30.9693 117.047 31.8379 117.047 32.8213C117.047 34.0176 116.703 35.0747 116.014 35.9925C115.342 36.9103 114.253 37.6314 112.745 38.1558C111.253 38.6803 109.27 38.9425 106.796 38.9425ZM118.741 38.6229L118.987 35.1813C119.757 35.1813 120.298 35.1075 120.609 34.96C120.937 34.7961 121.134 34.5011 121.199 34.075C121.265 33.6325 121.281 32.9933 121.248 32.1575L120.855 20.505H124.346L124.764 32.1329C124.797 32.9524 124.895 33.5833 125.059 34.0258C125.223 34.4683 125.493 34.7715 125.87 34.9354C126.263 35.0993 126.788 35.1813 127.443 35.1813C128.066 35.1813 128.509 35.3451 128.771 35.6729C129.033 35.9843 129.164 36.3776 129.164 36.8529C129.164 37.361 128.992 37.7871 128.648 38.1313C128.304 38.459 127.82 38.6229 127.198 38.6229C126.476 38.6229 125.804 38.541 125.182 38.3771C124.559 38.2132 124.043 37.9018 123.633 37.4429C123.223 36.984 122.953 36.3203 122.822 35.4517L123.903 35.4763C123.625 36.3285 123.264 36.984 122.822 37.4429C122.379 37.8854 121.822 38.1968 121.15 38.3771C120.494 38.541 119.691 38.6229 118.741 38.6229ZM143.269 38.6229C142.515 38.6229 141.81 38.5656 141.155 38.4508C140.516 38.3361 139.926 38.1394 139.385 37.8608C138.844 37.5658 138.36 37.1643 137.934 36.6563C137.525 36.1482 137.18 35.509 136.902 34.7387L138.844 33.19C139.139 33.7144 139.499 34.1242 139.926 34.4192C140.352 34.6978 140.86 34.8944 141.45 35.0092C142.04 35.1239 142.728 35.1813 143.515 35.1813C144.138 35.1813 144.58 35.3451 144.842 35.6729C145.104 35.9843 145.236 36.3776 145.236 36.8529C145.236 37.361 145.063 37.7871 144.719 38.1313C144.392 38.459 143.908 38.6229 143.269 38.6229ZM127.191 38.6229L127.437 35.1813C128.322 35.1813 129.199 35.1321 130.068 35.0338C130.936 34.9354 131.78 34.7879 132.6 34.5912C133.419 34.3946 134.198 34.1406 134.935 33.8292C135.689 33.5178 136.394 33.1408 137.049 32.6983C136.558 32.4033 136.025 32.1493 135.451 31.9362C134.878 31.7232 134.263 31.5675 133.608 31.4692C132.968 31.3544 132.288 31.2971 131.567 31.2971C131.305 31.2971 131.026 31.3053 130.731 31.3217C130.453 31.3381 130.166 31.3708 129.871 31.42C129.576 31.4528 129.281 31.5019 128.986 31.5675L128.494 28.1996C128.97 28.0685 129.469 27.9783 129.994 27.9292C130.535 27.8636 131.01 27.8308 131.42 27.8308C132.305 27.8308 133.116 27.9292 133.853 28.1258C134.607 28.3225 135.296 28.5683 135.918 28.8633C136.558 29.1583 137.148 29.4533 137.688 29.7483C138.246 30.0433 138.77 30.2892 139.262 30.4858C139.77 30.6825 140.262 30.7808 140.737 30.7808H141.646L142.04 34.0504C141.335 34.0832 140.671 34.2225 140.048 34.4683C139.442 34.6978 138.836 34.9928 138.229 35.3533C137.639 35.6975 137 36.0581 136.312 36.435C135.64 36.8119 134.878 37.1643 134.026 37.4921C133.173 37.8199 132.19 38.0903 131.076 38.3033C129.961 38.5164 128.666 38.6229 127.191 38.6229ZM131.42 25.2988C130.912 25.2988 130.477 25.1267 130.117 24.7825C129.773 24.4383 129.601 24.0122 129.601 23.5042C129.601 22.9961 129.773 22.5618 130.117 22.2012C130.477 21.8407 130.912 21.6604 131.42 21.6604C131.911 21.6604 132.329 21.8407 132.673 22.2012C133.034 22.5618 133.214 22.9961 133.214 23.5042C133.214 24.0122 133.034 24.4383 132.673 24.7825C132.329 25.1267 131.911 25.2988 131.42 25.2988ZM143.276 38.6229L143.522 35.1813C144.243 35.1813 144.809 35.1321 145.218 35.0338C145.644 34.9354 145.948 34.7551 146.128 34.4929C146.308 34.2143 146.398 33.821 146.398 33.3129C146.398 32.854 146.333 32.305 146.202 31.6658C146.087 31.0267 145.931 30.3629 145.735 29.6746C145.538 28.9862 145.341 28.3553 145.145 27.7817L148.537 26.8475C148.734 27.4047 148.93 28.0521 149.127 28.7896C149.324 29.5271 149.488 30.2892 149.619 31.0758C149.766 31.8461 149.84 32.5918 149.84 33.3129C149.84 34.2143 149.725 34.9764 149.496 35.5992C149.266 36.2056 148.947 36.7136 148.537 37.1233C148.144 37.5167 147.668 37.8281 147.111 38.0575C146.57 38.2706 145.972 38.4181 145.317 38.5C144.661 38.5819 143.981 38.6229 143.276 38.6229ZM146.816 24.8071C146.308 24.8071 145.874 24.635 145.513 24.2908C145.169 23.9467 144.997 23.5206 144.997 23.0125C144.997 22.5044 145.169 22.0701 145.513 21.7096C145.874 21.349 146.308 21.1687 146.816 21.1687C147.308 21.1687 147.726 21.349 148.07 21.7096C148.431 22.0701 148.611 22.5044 148.611 23.0125C148.611 23.5206 148.431 23.9467 148.07 24.2908C147.726 24.635 147.308 24.8071 146.816 24.8071Z" fill="#2445CD"/>
</svg>
