<svg width="242" height="66" viewBox="0 0 242 66" fill="none" xmlns="http://www.w3.org/2000/svg">
<path fill-rule="evenodd" clip-rule="evenodd" d="M16.5393 16.3146L32.8539 0V32.6292H0.224701L16.5393 16.3146ZM32.8539 65.2586L32.8539 32.6294L65.4831 32.6294C65.4831 32.6294 49.073 35.7082 42.8291 41.952C36.3305 48.4507 32.8539 65.2586 32.8539 65.2586Z" fill="white"/>
<path d="M83.8091 43.2651C82.1232 43.2651 80.8181 43.0929 79.8936 42.7485C78.9872 42.4041 78.3527 41.8693 77.9902 41.1442C77.6276 40.401 77.4192 39.4674 77.3648 38.3435L76.7938 23.2253H80.6005L81.1715 36.5217C81.2078 37.3556 81.2984 37.981 81.4434 38.3979C81.5885 38.8148 81.8604 39.0958 82.2592 39.2408C82.6761 39.3859 83.2834 39.4584 84.081 39.4584C84.7698 39.4584 85.2593 39.6396 85.5493 40.0022C85.8575 40.3466 86.0115 40.7817 86.0115 41.3074C86.0115 41.8693 85.8212 42.3406 85.4405 42.7213C85.0599 43.0838 84.516 43.2651 83.8091 43.2651ZM92.9822 49.1112C91.6952 49.1112 90.5078 48.8302 89.4202 48.2683C88.3325 47.7244 87.4624 46.8634 86.8098 45.6851C86.1573 44.525 85.831 43.0295 85.831 41.1986C85.831 39.5853 86.0213 38.1079 86.402 36.7665C86.7827 35.4069 87.2993 34.2377 87.9519 33.2588C88.6226 32.2618 89.3749 31.4914 90.2087 30.9476C91.0426 30.4038 91.9218 30.1318 92.8463 30.1318C93.5351 30.1318 94.1877 30.3312 94.804 30.73C95.4203 31.1107 95.9279 31.6727 96.3267 32.4159C96.7255 33.1591 96.9249 34.0655 96.9249 35.135C96.9249 35.7151 96.8071 36.3677 96.5714 37.0927C96.3358 37.8178 95.9188 38.5067 95.3206 39.1593C94.7406 39.7937 93.9248 40.3013 92.8734 40.682L93.526 38.5339C94.1061 38.7514 94.7315 38.9327 95.4022 39.0777C96.0729 39.2046 96.7708 39.3043 97.4959 39.3768C98.221 39.4312 98.928 39.4584 99.6168 39.4584C100.306 39.4584 100.795 39.6396 101.085 40.0022C101.393 40.3466 101.547 40.7817 101.547 41.3074C101.547 41.8693 101.357 42.3406 100.976 42.7213C100.596 43.0838 100.052 43.2651 99.3449 43.2651C98.8373 43.2651 98.2573 43.2379 97.6047 43.1835C96.9702 43.1292 96.3448 43.0566 95.7285 42.966C95.1303 42.8754 94.6227 42.7757 94.2058 42.6669L97.1696 41.9871C97.5866 42.4947 97.8675 43.0566 98.0125 43.673C98.1757 44.3074 98.1938 44.9419 98.0669 45.5763C97.9582 46.2108 97.6953 46.7909 97.2784 47.3166C96.8796 47.8604 96.3176 48.2954 95.5925 48.6217C94.8856 48.948 94.0155 49.1112 92.9822 49.1112ZM83.846 43.2651L84.1179 39.4584C84.4261 39.4584 84.834 39.4584 85.3415 39.4584C85.8672 39.4584 86.3295 39.4584 86.7283 39.4584L87.0274 42.9116C86.5017 43.0204 85.9307 43.102 85.3143 43.1563C84.7161 43.2289 84.2267 43.2651 83.846 43.2651ZM92.8734 45.3588C93.236 45.3588 93.5351 45.2954 93.7707 45.1685C94.0064 45.0597 94.1786 44.8966 94.2874 44.679C94.4143 44.4796 94.4777 44.253 94.4777 43.9993C94.4777 43.7817 94.4052 43.537 94.2602 43.2651C94.1152 42.9932 93.8433 42.7575 93.4445 42.5581C93.0457 42.3406 92.4746 42.2318 91.7314 42.2318C91.4595 42.2318 91.1604 42.25 90.8341 42.2862C90.526 42.3225 90.1906 42.3769 89.8281 42.4494C89.4655 42.5038 89.0939 42.5763 88.7132 42.6669L88.8492 39.404C89.538 39.3496 90.1543 39.2408 90.6982 39.0777C91.242 38.8964 91.6952 38.6608 92.0577 38.3707C92.4384 38.0626 92.7284 37.6909 92.9278 37.2559C93.1272 36.8208 93.2269 36.3133 93.2269 35.7332C93.2269 35.4432 93.1997 35.1622 93.1454 34.8903C93.091 34.6002 93.0094 34.3646 92.9006 34.1833C92.7919 33.9839 92.6559 33.8842 92.4928 33.8842C92.2027 33.8842 91.8946 34.0474 91.5683 34.3736C91.242 34.6999 90.9338 35.1712 90.6438 35.7876C90.3537 36.3858 90.109 37.1109 89.9096 37.9629C89.7283 38.7967 89.6377 39.7303 89.6377 40.7635C89.6377 41.6336 89.7283 42.3678 89.9096 42.966C90.0909 43.5461 90.3356 44.0083 90.6438 44.3527C90.9519 44.7153 91.2964 44.9691 91.677 45.1141C92.0758 45.2772 92.4746 45.3588 92.8734 45.3588ZM126.653 43.2651C125.728 43.2651 124.84 43.1835 123.988 43.0204C123.136 42.8391 122.365 42.6035 121.677 42.3134C121.006 42.0234 120.453 41.6971 120.018 41.3345L122.465 38.697C123.118 38.9689 123.788 39.1683 124.477 39.2952C125.166 39.404 125.982 39.4584 126.924 39.4584C127.613 39.4584 128.103 39.6396 128.393 40.0022C128.701 40.3466 128.855 40.7817 128.855 41.3074C128.855 41.8693 128.665 42.3406 128.284 42.7213C127.903 43.0838 127.36 43.2651 126.653 43.2651ZM113.465 43.6186C111.779 43.6186 110.374 43.5461 109.25 43.4011C108.145 43.256 107.247 43.0476 106.558 42.7757C105.87 42.5038 105.326 42.1775 104.927 41.7968C104.528 41.4161 104.202 40.9992 103.948 40.546L104.709 40.3285C104.256 41.1986 103.74 41.8421 103.16 42.259C102.579 42.676 101.972 42.9479 101.338 43.0748C100.703 43.2017 100.051 43.2651 99.38 43.2651L99.6519 39.4584C100.214 39.4584 100.658 39.3677 100.984 39.1865C101.311 39.0052 101.573 38.7061 101.773 38.2892C101.99 37.8722 102.19 37.3193 102.371 36.6305C102.552 35.9417 102.77 35.0987 103.024 34.1017L106.477 34.9447C106.35 35.4341 106.241 35.8601 106.151 36.2226C106.078 36.5852 106.015 36.9024 105.96 37.1743C105.924 37.4281 105.906 37.6366 105.906 37.7997C105.906 38.1441 105.987 38.4523 106.151 38.7242C106.314 38.978 106.631 39.1865 107.102 39.3496C107.574 39.4946 108.262 39.6124 109.169 39.7031C110.093 39.7756 111.299 39.8118 112.785 39.8118C114.362 39.8118 115.676 39.7575 116.728 39.6487C117.779 39.5218 118.613 39.3496 119.229 39.1321C119.864 38.8964 120.317 38.6154 120.589 38.2892C120.861 37.9447 120.997 37.555 120.997 37.1199C120.997 36.7755 120.915 36.4583 120.752 36.1683C120.607 35.8601 120.362 35.6063 120.018 35.4069C119.674 35.2075 119.229 35.1078 118.686 35.1078C118.033 35.1078 117.371 35.2709 116.701 35.5972C116.048 35.9054 115.405 36.3223 114.77 36.848C114.136 37.3556 113.528 37.9266 112.948 38.5611C112.386 39.1955 111.879 39.83 111.426 40.4644L107.347 40.0022C108.054 38.8602 108.851 37.7635 109.74 36.7121C110.628 35.6607 111.58 34.7362 112.595 33.9386C113.61 33.1229 114.661 32.4793 115.749 32.008C116.837 31.5367 117.942 31.3011 119.066 31.3011C120.281 31.3011 121.314 31.5367 122.166 32.008C123.018 32.4793 123.671 33.1319 124.124 33.9658C124.577 34.7996 124.804 35.7604 124.804 36.848C124.804 38.1713 124.423 39.3405 123.662 40.3557C122.918 41.3708 121.713 42.1684 120.045 42.7485C118.396 43.3286 116.202 43.6186 113.465 43.6186ZM126.677 43.2651L126.949 39.4584C127.801 39.4584 128.399 39.3768 128.744 39.2136C129.106 39.0324 129.324 38.7061 129.396 38.2348C129.469 37.7453 129.487 37.0384 129.451 36.1139L129.016 23.2253H132.877L133.339 36.0867C133.375 36.993 133.484 37.6909 133.665 38.1804C133.847 38.6698 134.146 39.0052 134.563 39.1865C134.998 39.3677 135.578 39.4584 136.303 39.4584C136.992 39.4584 137.481 39.6396 137.771 40.0022C138.061 40.3466 138.206 40.7817 138.206 41.3074C138.206 41.8693 138.016 42.3406 137.635 42.7213C137.254 43.0838 136.72 43.2651 136.031 43.2651C135.233 43.2651 134.49 43.1745 133.801 42.9932C133.112 42.8119 132.541 42.4675 132.088 41.9599C131.635 41.4524 131.336 40.7182 131.191 39.7575L132.387 39.7847C132.079 40.7273 131.68 41.4524 131.191 41.9599C130.701 42.4494 130.085 42.7938 129.342 42.9932C128.617 43.1745 127.729 43.2651 126.677 43.2651ZM153.807 43.2651C152.973 43.2651 152.194 43.2017 151.469 43.0748C150.762 42.9479 150.109 42.7303 149.511 42.4222C148.913 42.0959 148.378 41.6518 147.907 41.0898C147.453 40.5279 147.073 39.8209 146.765 38.9689L148.913 37.2559C149.239 37.836 149.638 38.2892 150.109 38.6154C150.58 38.9236 151.142 39.1411 151.795 39.268C152.447 39.3949 153.209 39.4584 154.079 39.4584C154.768 39.4584 155.257 39.6396 155.547 40.0022C155.837 40.3466 155.982 40.7817 155.982 41.3074C155.982 41.8693 155.792 42.3406 155.411 42.7213C155.049 43.0838 154.514 43.2651 153.807 43.2651ZM136.024 43.2651L136.296 39.4584C137.275 39.4584 138.245 39.404 139.205 39.2952C140.166 39.1865 141.1 39.0233 142.006 38.8058C142.912 38.5883 143.774 38.3073 144.589 37.9629C145.423 37.6184 146.203 37.2015 146.928 36.7121C146.384 36.3858 145.795 36.1048 145.16 35.8691C144.526 35.6335 143.846 35.4613 143.121 35.3525C142.414 35.2256 141.662 35.1622 140.864 35.1622C140.574 35.1622 140.266 35.1712 139.94 35.1894C139.631 35.2075 139.314 35.2438 138.988 35.2981C138.662 35.3344 138.335 35.3888 138.009 35.4613L137.465 31.7361C137.991 31.5911 138.544 31.4914 139.124 31.437C139.722 31.3645 140.248 31.3283 140.701 31.3283C141.68 31.3283 142.577 31.437 143.393 31.6545C144.227 31.8721 144.988 32.144 145.677 32.4703C146.384 32.7966 147.036 33.1229 147.635 33.4492C148.251 33.7754 148.831 34.0474 149.375 34.2649C149.937 34.4824 150.481 34.5912 151.006 34.5912H152.012L152.447 38.2076C151.668 38.2438 150.934 38.3979 150.245 38.6698C149.574 38.9236 148.904 39.2499 148.233 39.6487C147.58 40.0294 146.873 40.4282 146.112 40.8451C145.369 41.262 144.526 41.6518 143.583 42.0143C142.641 42.3769 141.553 42.676 140.32 42.9116C139.088 43.1473 137.656 43.2651 136.024 43.2651ZM140.701 28.5276C140.139 28.5276 139.659 28.3372 139.26 27.9566C138.879 27.5759 138.689 27.1046 138.689 26.5426C138.689 25.9807 138.879 25.5003 139.26 25.1015C139.659 24.7027 140.139 24.5033 140.701 24.5033C141.245 24.5033 141.707 24.7027 142.088 25.1015C142.486 25.5003 142.686 25.9807 142.686 26.5426C142.686 27.1046 142.486 27.5759 142.088 27.9566C141.707 28.3372 141.245 28.5276 140.701 28.5276ZM153.815 43.2651L154.087 39.4584C154.885 39.4584 155.51 39.404 155.963 39.2952C156.434 39.1865 156.77 38.9871 156.969 38.697C157.169 38.3889 157.268 37.9538 157.268 37.3918C157.268 36.8843 157.196 36.277 157.051 35.57C156.924 34.8631 156.752 34.1289 156.534 33.3676C156.317 32.6062 156.099 31.9083 155.882 31.2739L159.634 30.2406C159.851 30.8569 160.069 31.573 160.287 32.3887C160.504 33.2044 160.685 34.0474 160.83 34.9175C160.994 35.7694 161.075 36.5942 161.075 37.3918C161.075 38.3889 160.948 39.2318 160.694 39.9206C160.441 40.5913 160.087 41.1533 159.634 41.6065C159.199 42.0415 158.673 42.3859 158.057 42.6397C157.459 42.8754 156.797 43.0385 156.072 43.1292C155.347 43.2198 154.595 43.2651 153.815 43.2651ZM157.731 27.9838C157.169 27.9838 156.688 27.7934 156.289 27.4127C155.909 27.0321 155.718 26.5608 155.718 25.9988C155.718 25.4369 155.909 24.9565 156.289 24.5577C156.688 24.1589 157.169 23.9595 157.731 23.9595C158.274 23.9595 158.737 24.1589 159.117 24.5577C159.516 24.9565 159.716 25.4369 159.716 25.9988C159.716 26.5608 159.516 27.0321 159.117 27.4127C158.737 27.7934 158.274 27.9838 157.731 27.9838ZM183.007 43.2651C181.72 43.2651 180.605 43.102 179.662 42.7757C178.738 42.4312 178.022 41.8874 177.514 41.1442C177.007 40.3829 176.717 39.3677 176.644 38.0988L176.155 27.1408H179.989L180.451 36.7665C180.487 37.5097 180.605 38.0807 180.804 38.4795C181.022 38.8602 181.33 39.123 181.729 39.268C182.128 39.3949 182.644 39.4584 183.279 39.4584C183.968 39.4584 184.457 39.6396 184.747 40.0022C185.037 40.3466 185.182 40.7817 185.182 41.3074C185.182 41.8693 184.992 42.3406 184.611 42.7213C184.248 43.0838 183.714 43.2651 183.007 43.2651ZM178.031 40.7363C176.816 41.0083 175.647 41.1351 174.523 41.117C173.399 41.0808 172.393 40.8814 171.505 40.5188C170.617 40.1381 169.91 39.5943 169.384 38.8874C168.876 38.1804 168.623 37.2831 168.623 36.1954C168.623 35.2347 168.831 34.3646 169.248 33.5851C169.683 32.7875 170.281 32.0896 171.043 31.4914C171.822 30.8932 172.729 30.3856 173.762 29.9687C174.795 29.5518 175.919 29.2345 177.134 29.017L177.514 32.8781C176.735 32.9144 176.028 33.0232 175.393 33.2044C174.777 33.3676 174.242 33.5851 173.789 33.857C173.354 34.1289 173.019 34.4371 172.783 34.7815C172.547 35.1078 172.429 35.4613 172.429 35.842C172.429 36.1501 172.538 36.4039 172.756 36.6033C172.973 36.8027 173.263 36.9659 173.626 37.0927C173.988 37.2015 174.405 37.265 174.877 37.2831C175.348 37.3012 175.828 37.274 176.318 37.2015C176.825 37.129 177.324 37.0112 177.813 36.848L178.031 40.7363ZM178.112 24.3402C177.587 24.3402 177.134 24.1589 176.753 23.7963C176.39 23.4157 176.209 22.9715 176.209 22.464C176.209 21.9383 176.39 21.4851 176.753 21.1044C177.134 20.7238 177.587 20.5334 178.112 20.5334C178.62 20.5334 179.055 20.7238 179.418 21.1044C179.78 21.4851 179.961 21.9383 179.961 22.464C179.961 22.9715 179.78 23.4157 179.418 23.7963C179.055 24.1589 178.62 24.3402 178.112 24.3402ZM173.408 24.313C172.883 24.313 172.429 24.1317 172.049 23.7691C171.686 23.3885 171.505 22.9444 171.505 22.4368C171.505 21.9111 171.686 21.4579 172.049 21.0772C172.429 20.6966 172.883 20.5062 173.408 20.5062C173.916 20.5062 174.351 20.6966 174.714 21.0772C175.076 21.4579 175.257 21.9111 175.257 22.4368C175.257 22.9444 175.076 23.3885 174.714 23.7691C174.351 24.1317 173.916 24.313 173.408 24.313ZM210.27 43.2651C209.346 43.2651 208.457 43.1835 207.605 43.0204C206.754 42.8391 205.983 42.6035 205.294 42.3134C204.624 42.0234 204.071 41.6971 203.636 41.3345L206.083 38.697C206.735 38.9689 207.406 39.1683 208.095 39.2952C208.784 39.404 209.6 39.4584 210.542 39.4584C211.231 39.4584 211.72 39.6396 212.01 40.0022C212.319 40.3466 212.473 40.7817 212.473 41.3074C212.473 41.8693 212.282 42.3406 211.902 42.7213C211.521 43.0838 210.977 43.2651 210.27 43.2651ZM197.083 43.6186C195.397 43.6186 193.992 43.5461 192.868 43.4011C191.762 43.256 190.865 43.0476 190.176 42.7757C189.487 42.5038 188.943 42.1775 188.545 41.7968C188.146 41.4161 187.82 40.9992 187.566 40.546L188.327 40.3285C187.874 41.1986 187.357 41.8421 186.777 42.259C186.197 42.676 185.59 42.9479 184.955 43.0748C184.321 43.2017 183.668 43.2651 182.998 43.2651L183.27 39.4584C183.831 39.4584 184.276 39.3677 184.602 39.1865C184.928 39.0052 185.191 38.7061 185.39 38.2892C185.608 37.8722 185.807 37.3193 185.989 36.6305C186.17 35.9417 186.387 35.0987 186.641 34.1017L190.094 34.9447C189.968 35.4341 189.859 35.8601 189.768 36.2226C189.696 36.5852 189.632 36.9024 189.578 37.1743C189.542 37.4281 189.523 37.6366 189.523 37.7997C189.523 38.1441 189.605 38.4523 189.768 38.7242C189.931 38.978 190.249 39.1865 190.72 39.3496C191.191 39.4946 191.88 39.6124 192.786 39.7031C193.711 39.7756 194.916 39.8118 196.403 39.8118C197.98 39.8118 199.294 39.7575 200.345 39.6487C201.397 39.5218 202.231 39.3496 202.847 39.1321C203.482 38.8964 203.935 38.6154 204.207 38.2892C204.479 37.9447 204.614 37.555 204.614 37.1199C204.614 36.7755 204.533 36.4583 204.37 36.1683C204.225 35.8601 203.98 35.6063 203.636 35.4069C203.291 35.2075 202.847 35.1078 202.303 35.1078C201.651 35.1078 200.989 35.2709 200.318 35.5972C199.666 35.9054 199.022 36.3223 198.388 36.848C197.753 37.3556 197.146 37.9266 196.566 38.5611C196.004 39.1955 195.496 39.83 195.043 40.4644L190.965 40.0022C191.672 38.8602 192.469 37.7635 193.357 36.7121C194.246 35.6607 195.197 34.7362 196.212 33.9386C197.228 33.1229 198.279 32.4793 199.367 32.008C200.454 31.5367 201.56 31.3011 202.684 31.3011C203.898 31.3011 204.932 31.5367 205.784 32.008C206.636 32.4793 207.288 33.1319 207.741 33.9658C208.195 34.7996 208.421 35.7604 208.421 36.848C208.421 38.1713 208.041 39.3405 207.279 40.3557C206.536 41.3708 205.331 42.1684 203.663 42.7485C202.013 43.3286 199.82 43.6186 197.083 43.6186ZM210.295 43.2651L210.567 39.4584C211.256 39.4584 211.799 39.3949 212.198 39.268C212.615 39.1411 212.941 38.8874 213.177 38.5067C213.431 38.1079 213.639 37.5278 213.802 36.7665C213.984 36.0051 214.165 34.99 214.346 33.7211L217.908 34.3193C217.872 34.5912 217.818 34.9084 217.745 35.2709C217.691 35.6335 217.636 36.0051 217.582 36.3858C217.546 36.7483 217.528 37.0927 217.528 37.419C217.528 37.8541 217.618 38.2257 217.8 38.5339C217.999 38.8239 218.343 39.0505 218.833 39.2136C219.34 39.3768 220.065 39.4584 221.008 39.4584C221.697 39.4584 222.186 39.6396 222.476 40.0022C222.766 40.3466 222.911 40.7817 222.911 41.3074C222.911 41.8693 222.721 42.3406 222.34 42.7213C221.978 43.0838 221.443 43.2651 220.736 43.2651C219.485 43.2651 218.47 43.1473 217.691 42.9116C216.911 42.676 216.331 42.2772 215.951 41.7152C215.57 41.1533 215.325 40.3829 215.216 39.404H216.522C216.195 40.2741 215.815 40.972 215.38 41.4977C214.945 42.0053 214.455 42.3859 213.911 42.6397C213.367 42.8935 212.787 43.0566 212.171 43.1292C211.573 43.2198 210.947 43.2651 210.295 43.2651ZM215.842 30.9476C215.28 30.9476 214.799 30.7572 214.401 30.3766C214.02 29.9959 213.83 29.5246 213.83 28.9626C213.83 28.4007 214.02 27.9203 214.401 27.5215C214.799 27.1227 215.28 26.9233 215.842 26.9233C216.386 26.9233 216.848 27.1227 217.229 27.5215C217.627 27.9203 217.827 28.4007 217.827 28.9626C217.827 29.5246 217.627 29.9959 217.229 30.3766C216.848 30.7572 216.386 30.9476 215.842 30.9476ZM220.73 43.2651L221.002 39.4584C221.419 39.4584 221.773 39.3587 222.063 39.1593C222.371 38.9417 222.688 38.5883 223.015 38.0988C223.341 37.5912 223.721 36.9115 224.157 36.0595C224.7 34.9718 225.262 34.1199 225.842 33.5035C226.441 32.8872 227.048 32.4521 227.664 32.1984C228.299 31.9265 228.933 31.7905 229.568 31.7905C230.365 31.7905 231.108 31.9627 231.797 32.3071C232.486 32.6515 233.084 33.1229 233.592 33.7211C234.099 34.3011 234.489 34.9718 234.761 35.7332C235.051 36.4764 235.196 37.2468 235.196 38.0444C235.196 39.0052 234.988 39.8753 234.571 40.6548C234.172 41.4161 233.61 42.0234 232.885 42.4766C232.178 42.9116 231.362 43.1292 230.438 43.1292C229.658 43.1292 228.752 42.9932 227.719 42.7213C226.685 42.4494 225.598 41.8784 224.456 41.0083L225.842 37.7181C226.658 38.2801 227.419 38.688 228.126 38.9417C228.852 39.1955 229.45 39.3224 229.921 39.3224C230.284 39.3224 230.583 39.2862 230.818 39.2136C231.054 39.1411 231.226 39.0233 231.335 38.8602C231.444 38.697 231.498 38.4795 231.498 38.2076C231.498 37.8269 231.407 37.4372 231.226 37.0384C231.045 36.6396 230.8 36.3042 230.492 36.0323C230.202 35.7423 229.858 35.5972 229.459 35.5972C229.078 35.5972 228.752 35.7423 228.48 36.0323C228.226 36.3042 227.972 36.703 227.719 37.2287C227.483 37.7363 227.193 38.3345 226.848 39.0233C226.432 39.8572 226.024 40.5551 225.625 41.117C225.226 41.6608 224.8 42.0959 224.347 42.4222C223.912 42.7303 223.395 42.9479 222.797 43.0748C222.217 43.2017 221.528 43.2651 220.73 43.2651Z" fill="white"/>
</svg>
